<svg xmlns="http://www.w3.org/2000/svg" xmlns:xlink="http://www.w3.org/1999/xlink" preserveAspectRatio="xMidYMid" width="18" height="13" viewBox="0 0 18 13">
  <defs>
    <style>
      .cls-1 {
        fill: #ffc300;
        fill-rule: evenodd;
      }
    </style>
  </defs>
  <path d="M17.730,7.005 C17.910,6.821 18.000,6.636 18.000,6.452 C18.000,6.268 17.910,5.991 17.730,5.899 L11.970,0.274 C11.610,-0.096 11.160,-0.096 10.800,0.274 C10.440,0.642 10.440,1.103 10.800,1.380 L15.120,5.622 L0.810,5.622 C0.360,5.622 0.000,5.991 0.000,6.452 C0.000,6.913 0.360,7.282 0.810,7.282 L15.120,7.282 L10.710,11.616 C10.350,11.985 10.350,12.446 10.710,12.723 C11.070,13.092 11.520,13.092 11.880,12.723 L17.730,7.005 " class="cls-1"/>
</svg>
