<svg xmlns="http://www.w3.org/2000/svg" xmlns:xlink="http://www.w3.org/1999/xlink" preserveAspectRatio="xMidYMid" width="56" height="55.031" viewBox="0 0 56 55.031">
  <defs>
    <style>
      .cls-1 {
        fill: #ffc300;
        fill-rule: evenodd;
      }
    </style>
  </defs>
  <path d="M48.914,32.904 C49.212,34.123 49.355,35.367 49.355,36.634 C49.355,39.169 48.758,41.632 47.601,43.939 C46.504,46.139 44.929,48.100 42.937,49.774 C38.916,53.157 33.583,55.023 27.964,55.023 C22.345,55.023 17.024,53.157 13.016,49.786 C11.023,48.112 9.461,46.151 8.351,43.951 C7.182,41.644 6.597,39.181 6.597,36.646 C6.597,35.379 6.752,34.135 7.039,32.916 C3.126,32.772 -0.000,29.532 -0.000,25.587 C-0.000,21.533 3.293,18.245 7.325,18.245 C7.695,18.245 8.065,18.269 8.423,18.329 C9.890,7.951 18.086,0.012 27.976,0.012 C37.866,0.012 46.062,7.951 47.530,18.329 C47.900,18.269 48.281,18.234 48.675,18.234 C52.719,18.234 56.000,21.533 56.000,25.575 C56.000,29.544 52.839,32.784 48.914,32.904 ZM27.976,52.500 C36.733,52.500 44.094,47.490 46.229,40.699 L37.413,40.699 L18.551,40.699 L9.723,40.699 C11.859,47.490 19.219,52.500 27.976,52.500 ZM8.649,28.348 C8.637,28.301 7.957,25.909 5.893,25.419 C5.225,25.264 4.808,24.582 4.963,23.913 C5.118,23.243 5.798,22.825 6.466,22.980 C7.170,23.147 7.778,23.423 8.291,23.769 C8.232,23.076 8.196,22.382 8.196,21.665 C8.196,21.378 8.196,21.103 8.208,20.828 C7.922,20.768 7.623,20.744 7.325,20.744 C4.665,20.744 2.505,22.908 2.505,25.575 C2.505,28.241 4.665,30.405 7.325,30.405 C7.516,30.405 7.695,30.393 7.874,30.369 C8.077,29.879 8.315,29.389 8.578,28.899 C8.637,28.803 8.685,28.707 8.745,28.611 C8.709,28.528 8.673,28.444 8.649,28.348 ZM46.182,32.485 C46.050,32.055 45.895,31.636 45.716,31.230 C44.762,29.030 43.259,27.069 41.338,25.443 C41.099,25.252 40.861,25.060 40.622,24.869 C40.968,24.331 41.266,23.745 41.541,23.147 C43.843,17.994 42.507,12.973 38.558,11.933 C38.069,11.801 37.556,11.741 37.043,11.741 C33.786,11.741 30.147,14.204 27.964,17.935 C25.781,14.216 22.142,11.741 18.885,11.741 C18.372,11.741 17.859,11.801 17.370,11.933 C13.421,12.973 12.085,17.994 14.388,23.147 C14.662,23.745 14.972,24.319 15.306,24.869 C15.080,25.049 14.853,25.228 14.638,25.407 C12.705,27.033 11.178,29.018 10.224,31.230 C10.045,31.648 9.890,32.067 9.747,32.497 C9.329,33.812 9.103,35.199 9.103,36.634 C9.103,37.160 9.138,37.674 9.198,38.188 L15.211,38.188 L40.741,38.188 L46.754,38.188 C46.814,37.674 46.850,37.160 46.850,36.634 C46.850,35.199 46.623,33.812 46.182,32.485 ZM48.675,20.744 C48.353,20.744 48.043,20.780 47.744,20.840 C47.744,21.115 47.756,21.390 47.756,21.665 C47.756,22.335 47.733,22.992 47.673,23.650 C48.150,23.363 48.699,23.124 49.319,22.980 C49.987,22.825 50.667,23.243 50.822,23.913 C50.977,24.582 50.560,25.264 49.892,25.419 C47.816,25.897 47.148,28.324 47.136,28.348 C47.124,28.372 47.124,28.396 47.112,28.420 C47.196,28.587 47.291,28.743 47.375,28.899 C47.637,29.389 47.864,29.879 48.078,30.369 C48.281,30.393 48.472,30.405 48.675,30.405 C51.335,30.405 53.495,28.241 53.495,25.575 C53.495,22.908 51.335,20.744 48.675,20.744 ZM33.142,25.826 C31.738,25.826 30.601,24.685 30.601,23.279 C30.601,21.873 31.738,20.732 33.142,20.732 C34.545,20.732 35.683,21.873 35.683,23.279 C35.683,24.685 34.545,25.826 33.142,25.826 ZM32.569,30.764 C33.225,31.326 33.309,32.318 32.736,32.964 L31.293,34.649 C30.983,35.008 30.541,35.199 30.100,35.199 C29.742,35.199 29.384,35.080 29.086,34.829 C28.429,34.267 28.358,33.274 28.919,32.617 L30.362,30.931 C30.923,30.273 31.913,30.202 32.569,30.764 ZM25.853,35.223 C25.411,35.223 24.970,35.032 24.660,34.673 L23.216,32.987 C22.655,32.330 22.727,31.337 23.383,30.775 C24.039,30.214 25.029,30.285 25.590,30.943 L27.034,32.641 C27.594,33.298 27.523,34.291 26.867,34.853 C26.568,35.104 26.210,35.223 25.853,35.223 ZM22.810,25.826 C21.407,25.826 20.269,24.685 20.269,23.279 C20.269,21.873 21.407,20.732 22.810,20.732 C24.214,20.732 25.351,21.873 25.351,23.279 C25.351,24.685 24.214,25.826 22.810,25.826 Z" class="cls-1"/>
</svg>
