<svg xmlns="http://www.w3.org/2000/svg" xmlns:xlink="http://www.w3.org/1999/xlink" preserveAspectRatio="xMidYMid" width="54" height="51.031" viewBox="0 0 54 51.031">
  <defs>
    <style>
      .cls-1 {
        fill: #ffc300;
        fill-rule: evenodd;
      }
    </style>
  </defs>
  <path d="M53.941,3.240 C53.796,1.488 52.391,0.015 50.625,0.015 L3.375,0.015 C1.610,0.015 0.206,1.488 0.058,3.240 L-0.000,3.240 L-0.000,47.624 C-0.000,49.500 1.513,51.025 3.375,51.025 L50.625,51.025 C52.487,51.025 54.000,49.500 54.000,47.624 L54.000,3.240 L53.941,3.240 ZM20.250,20.419 L20.250,10.217 L33.750,10.217 L33.750,20.419 L20.250,20.419 ZM33.750,23.820 L33.750,34.304 L20.250,34.304 L20.250,23.820 L33.750,23.820 ZM16.875,10.217 L16.875,20.419 L3.375,20.419 L3.375,10.217 L16.875,10.217 ZM3.375,23.820 L16.875,23.820 L16.875,34.304 L3.375,34.304 L3.375,23.820 ZM3.375,47.624 L3.375,37.422 L16.875,37.422 L16.875,47.624 L3.375,47.624 ZM20.250,47.624 L20.250,37.422 L33.750,37.422 L33.750,47.624 L20.250,47.624 ZM50.625,47.624 L37.125,47.624 L37.125,37.422 L50.625,37.422 L50.625,47.624 ZM50.625,34.304 L37.125,34.304 L37.125,23.820 L50.625,23.820 L50.625,34.304 ZM50.625,20.419 L37.125,20.419 L37.125,10.217 L50.625,10.217 L50.625,20.419 Z" class="cls-1"/>
</svg>
