<svg xmlns="http://www.w3.org/2000/svg" xmlns:xlink="http://www.w3.org/1999/xlink" preserveAspectRatio="xMidYMid" width="205.5" height="25" viewBox="0 0 205.5 25">
  <defs>
    <style>
      .cls-1 {
        fill: #edf0f5;
        fill-rule: evenodd;
      }
    </style>
  </defs>
  <path d="M204.676,23.318 L196.068,23.654 C195.088,23.664 194.466,23.340 194.264,22.056 L193.847,15.996 C193.786,15.570 193.950,15.220 194.597,14.970 C195.993,14.494 197.336,14.543 198.606,15.356 L205.241,21.908 C205.661,22.356 205.625,23.246 204.676,23.318 ZM197.622,11.958 L194.869,11.809 C193.762,11.516 193.670,11.063 193.647,9.940 L193.611,5.576 C193.528,5.104 193.737,4.827 194.240,4.743 C195.754,4.492 197.306,4.429 198.942,4.780 C200.453,5.250 201.409,6.264 201.143,8.472 C200.840,10.656 199.564,11.698 197.622,11.958 ZM186.918,24.247 L184.168,24.293 C183.343,24.184 182.955,23.640 183.002,22.659 C182.987,21.600 182.814,20.849 181.711,20.834 L172.293,20.694 C171.625,20.538 171.330,20.008 171.408,19.106 L171.427,14.757 C171.396,14.041 171.738,13.698 172.453,13.729 L182.336,13.869 C182.942,13.863 183.237,13.876 183.222,13.285 L183.249,11.029 C183.249,10.281 183.207,10.085 182.388,10.071 L172.831,9.977 C172.035,9.933 171.639,9.690 171.640,8.902 L171.640,5.519 C171.706,4.928 172.032,4.686 173.040,4.725 L182.176,4.912 C183.016,4.943 183.420,4.725 183.389,4.258 L183.393,2.826 C183.315,1.892 183.734,1.457 184.652,1.519 L187.495,1.565 C188.257,1.503 188.645,1.814 188.661,2.499 L188.317,22.053 C188.270,23.468 187.788,24.200 186.918,24.247 ZM156.983,24.410 C156.130,24.447 155.919,23.513 156.340,23.177 C163.321,17.609 161.387,4.997 153.310,2.525 C153.132,2.471 152.628,2.331 152.703,1.913 C152.773,1.532 153.214,1.484 153.214,1.484 L163.971,0.508 C164.841,0.404 165.103,0.894 165.240,2.209 L167.037,22.133 C167.197,22.955 167.004,23.518 165.883,23.598 L156.983,24.410 ZM155.346,13.717 C154.948,18.936 152.159,21.452 146.980,21.268 L144.267,21.176 C143.470,21.069 143.194,20.440 143.302,19.703 L143.992,6.028 C144.038,5.292 144.329,4.985 144.865,5.107 L147.624,5.245 C151.927,5.776 155.476,7.609 155.346,13.717 ZM134.033,23.731 C133.001,23.622 132.406,23.075 132.249,22.090 L131.739,2.684 C131.761,2.161 131.895,1.699 132.796,1.663 L136.582,1.554 C137.456,1.579 137.990,1.943 138.185,2.648 L138.659,21.470 C138.598,22.783 138.051,23.512 137.020,23.658 L134.033,23.731 ZM126.832,14.302 L118.519,2.326 C118.072,1.359 118.347,0.792 119.345,0.623 L124.854,0.010 C125.752,-0.014 126.257,0.346 126.367,1.089 L127.859,13.843 C128.039,14.830 127.548,15.163 126.832,14.302 ZM124.755,24.930 L117.056,24.459 C116.543,24.336 116.269,24.015 116.231,23.493 L117.220,8.546 C117.306,7.884 117.474,6.998 118.231,8.193 L125.316,24.041 C125.526,24.716 125.339,25.012 124.755,24.930 ZM106.029,25.013 C105.485,24.993 105.123,24.549 105.027,23.487 L103.970,3.412 C104.027,2.760 104.399,2.575 105.095,2.460 L108.834,2.278 C109.391,2.201 109.596,2.496 109.641,3.064 L110.830,23.938 C110.837,24.430 110.504,24.718 109.830,24.803 L106.029,25.013 ZM97.052,24.330 L93.985,24.289 C92.985,24.234 92.655,23.357 92.701,22.130 L93.405,3.372 C93.378,2.666 93.736,2.237 94.483,2.085 L97.673,2.126 C98.289,2.144 98.925,2.415 99.000,2.873 L98.419,22.878 C98.388,23.755 98.013,24.314 97.052,24.330 ZM76.391,23.947 C75.626,23.892 75.109,23.378 75.020,22.431 L74.357,9.168 C74.386,8.176 74.854,8.260 75.209,8.790 L79.560,16.985 C80.419,18.555 82.106,18.398 82.918,17.079 L86.275,9.074 C86.703,8.102 87.327,7.712 87.458,8.743 L88.167,21.958 C88.198,22.733 87.111,23.404 85.755,23.521 L76.391,23.947 ZM81.696,11.300 C81.237,12.132 80.745,12.182 80.295,11.300 L76.145,2.566 C75.768,1.847 76.085,1.273 76.954,1.271 L84.859,1.255 C85.594,1.258 86.182,1.387 85.739,2.458 L81.696,11.300 ZM68.531,23.716 L54.834,23.995 C54.058,23.734 53.485,22.863 53.448,21.935 L53.448,18.039 C53.522,16.778 54.261,16.109 55.666,16.035 L57.607,15.924 C64.824,15.431 67.911,6.427 61.767,2.023 C61.149,1.580 61.242,1.061 62.320,1.008 L68.476,0.841 C69.141,0.767 69.511,1.063 69.585,1.731 L70.028,22.437 C69.917,23.289 69.640,23.660 68.531,23.716 ZM54.789,12.457 L53.226,12.510 C52.687,12.457 52.364,12.043 52.256,11.270 L52.256,5.933 C52.355,5.187 52.768,4.666 53.873,4.639 L56.137,4.585 C61.742,5.083 61.167,12.191 54.789,12.457 ZM47.234,22.309 C47.136,23.500 46.566,24.275 45.538,24.383 C45.391,24.399 44.461,24.405 44.312,24.391 C43.330,24.302 42.772,23.584 42.371,21.952 L36.593,2.337 C36.593,2.337 36.405,1.683 36.607,1.396 C36.967,0.885 37.396,0.895 38.457,0.920 L46.614,1.404 C47.809,1.591 48.347,2.170 48.228,3.141 L47.234,22.309 ZM38.296,21.671 C38.592,22.603 38.484,23.140 37.571,23.283 L28.087,24.144 C27.003,24.152 26.502,23.659 26.582,22.665 L27.335,19.386 C27.559,18.826 27.962,18.423 28.759,18.365 L35.180,17.774 C35.923,17.836 36.451,18.079 36.765,18.500 L38.296,21.671 ZM30.655,14.198 C29.567,14.064 29.372,13.336 29.789,12.199 L31.654,7.269 C32.012,6.318 32.437,6.274 32.919,7.269 L35.050,13.265 C35.191,13.907 34.903,14.262 34.185,14.331 L30.655,14.198 ZM20.458,22.918 C19.970,24.172 19.209,24.351 17.758,24.320 L13.937,24.182 C13.541,24.172 13.242,23.793 13.557,23.520 C13.557,23.520 13.709,23.373 13.867,23.207 C15.570,21.413 16.370,18.946 16.062,16.437 C15.964,15.647 15.747,14.885 15.415,14.173 C14.205,11.573 11.920,9.836 9.119,9.405 C8.808,9.372 8.524,9.601 8.487,9.914 L8.072,13.406 C8.026,13.793 8.270,14.148 8.640,14.232 C9.408,14.405 10.073,14.825 10.563,15.446 C11.126,16.159 11.376,17.048 11.268,17.949 C11.048,19.782 9.375,21.118 7.485,20.926 C4.323,20.546 1.715,18.505 0.506,15.464 C0.363,15.104 0.252,14.730 0.176,14.350 C-0.364,11.639 0.335,8.933 2.092,6.926 C3.828,4.943 6.425,3.858 9.034,4.024 C9.089,4.028 10.067,4.128 10.940,4.217 C11.655,4.289 12.732,4.364 12.752,4.366 C13.117,4.395 13.437,4.135 13.480,3.772 L13.779,0.762 C13.824,0.335 14.205,0.024 14.633,0.067 L27.534,1.411 C28.709,1.551 29.378,2.145 28.882,3.349 L20.458,22.918 Z" class="cls-1"/>
</svg>
