<svg xmlns="http://www.w3.org/2000/svg" xmlns:xlink="http://www.w3.org/1999/xlink" preserveAspectRatio="xMidYMid" width="390" height="47.5" viewBox="0 0 390 47.5">
  <defs>
    <style>
      .cls-1 {
        fill: #ffc300;
        fill-rule: evenodd;
      }
    </style>
  </defs>
  <path d="M388.435,44.275 L372.101,44.913 C370.240,44.934 369.060,44.318 368.676,41.878 L367.885,30.363 C367.768,29.555 368.081,28.889 369.309,28.415 C371.957,27.510 374.507,27.602 376.917,29.148 L389.509,41.597 C390.306,42.448 390.237,44.140 388.435,44.275 ZM375.050,22.691 L369.825,22.409 C367.723,21.851 367.550,20.992 367.506,18.858 L367.436,10.565 C367.279,9.668 367.677,9.142 368.631,8.984 C371.505,8.507 374.450,8.387 377.554,9.054 C380.423,9.946 382.236,11.872 381.732,16.069 C381.157,20.218 378.735,22.198 375.050,22.691 ZM354.735,46.040 L349.516,46.128 C347.952,45.921 347.215,44.887 347.304,43.023 C347.275,41.012 346.946,39.584 344.853,39.557 L326.981,39.290 C325.712,38.993 325.152,37.987 325.301,36.272 L325.337,28.009 C325.278,26.649 325.927,25.998 327.283,26.057 L346.039,26.322 C347.189,26.312 347.749,26.335 347.721,25.213 L347.772,20.926 C347.772,19.506 347.694,19.133 346.139,19.107 L328.001,18.928 C326.491,18.845 325.740,18.383 325.742,16.885 L325.742,10.458 C325.865,9.334 326.485,8.875 328.397,8.949 L345.737,9.304 C347.330,9.364 348.096,8.949 348.039,8.062 L348.046,5.341 C347.897,3.567 348.694,2.740 350.435,2.858 L355.831,2.945 C357.276,2.828 358.013,3.419 358.043,4.720 L357.390,41.871 C357.301,44.560 356.387,45.951 354.735,46.040 ZM314.816,44.807 L297.926,46.351 C296.306,46.421 295.906,44.646 296.705,44.008 C309.953,33.429 306.283,9.465 290.954,4.770 C290.618,4.666 289.660,4.400 289.804,3.605 C289.935,2.882 290.773,2.790 290.773,2.790 L311.187,0.937 C312.839,0.740 313.335,1.669 313.595,4.169 L317.006,42.025 C317.309,43.586 316.943,44.656 314.816,44.807 ZM294.819,26.034 C294.063,35.950 288.769,40.731 278.941,40.381 L273.793,40.206 C272.281,40.001 271.757,38.807 271.962,37.406 L273.271,11.425 C273.358,10.026 273.910,9.443 274.928,9.675 L280.163,9.938 C288.331,10.945 295.065,14.428 294.819,26.034 ZM254.371,45.060 C252.412,44.854 251.284,43.813 250.986,41.943 L250.017,5.072 C250.060,4.077 250.313,3.199 252.023,3.131 L259.209,2.924 C260.867,2.970 261.881,3.664 262.251,5.003 L263.150,40.764 C263.035,43.258 261.996,44.645 260.039,44.922 L254.371,45.060 ZM240.706,27.144 L224.929,4.391 C224.080,2.554 224.602,1.476 226.496,1.156 L236.951,-0.010 C238.655,-0.055 239.614,0.629 239.823,2.041 L242.654,26.272 C242.995,28.148 242.064,28.780 240.706,27.144 ZM236.763,47.338 L222.152,46.443 C221.180,46.210 220.658,45.600 220.587,44.607 L222.463,16.209 C222.627,14.951 222.946,13.268 224.383,15.539 L237.828,45.649 C238.227,46.932 237.872,47.495 236.763,47.338 ZM201.226,47.496 C200.193,47.458 199.507,46.615 199.324,44.596 L197.318,6.454 C197.426,5.216 198.132,4.864 199.454,4.645 L206.548,4.299 C207.605,4.153 207.994,4.714 208.080,5.793 L210.337,45.454 C210.350,46.388 209.717,46.936 208.438,47.096 L201.226,47.496 ZM184.189,46.199 L178.369,46.120 C176.471,46.015 175.845,44.350 175.931,42.019 L177.268,6.378 C177.216,5.036 177.897,4.221 179.313,3.932 L185.369,4.012 C186.536,4.046 187.745,4.561 187.885,5.431 L186.784,43.439 C186.724,45.107 186.012,46.169 184.189,46.199 ZM162.751,44.662 L144.979,45.470 C143.527,45.366 142.545,44.389 142.377,42.591 L141.120,17.392 C141.175,15.505 142.061,15.666 142.735,16.672 L150.993,32.242 C152.623,35.225 155.824,34.927 157.365,32.421 L163.738,17.211 C164.550,15.365 165.734,14.625 165.982,16.582 L167.328,41.691 C167.386,43.165 165.324,44.440 162.751,44.662 ZM155.048,21.442 C154.177,23.023 153.243,23.117 152.388,21.442 L144.512,4.846 C143.797,3.481 144.398,2.390 146.047,2.387 L161.050,2.355 C162.444,2.362 163.561,2.607 162.719,4.641 L155.048,21.442 ZM130.063,45.031 L104.068,45.562 C102.596,45.067 101.508,43.411 101.437,41.648 L101.437,34.245 C101.578,31.850 102.981,30.579 105.647,30.438 L109.330,30.227 C123.027,29.290 128.886,12.183 117.226,3.815 C116.053,2.973 116.230,1.987 118.276,1.886 L129.958,1.569 C131.219,1.428 131.922,1.991 132.062,3.260 L132.904,42.601 C132.693,44.221 132.167,44.926 130.063,45.031 ZM103.984,23.639 L101.018,23.741 C99.995,23.639 99.381,22.853 99.176,21.385 L99.176,11.244 C99.363,9.826 100.147,8.836 102.245,8.785 L106.541,8.683 C117.178,9.630 116.087,23.135 103.984,23.639 ZM89.646,42.359 C89.459,44.622 88.378,46.093 86.426,46.299 C86.147,46.329 84.383,46.341 84.100,46.315 C82.236,46.145 81.177,44.782 80.416,41.680 L69.450,4.413 C69.450,4.413 69.094,3.169 69.477,2.624 C70.161,1.652 70.976,1.673 72.988,1.719 L88.469,2.638 C90.737,2.994 91.758,4.094 91.531,5.939 L89.646,42.359 ZM72.684,41.145 C73.244,42.917 73.040,43.937 71.307,44.210 L53.308,45.845 C51.252,45.860 50.300,44.924 50.453,43.035 L51.881,36.806 C52.306,35.742 53.071,34.976 54.583,34.865 L66.770,33.741 C68.180,33.861 69.182,34.321 69.778,35.121 L72.684,41.145 ZM58.181,26.947 C56.117,26.693 55.748,25.309 56.539,23.150 L60.077,13.782 C60.757,11.976 61.563,11.893 62.479,13.782 L66.524,25.175 C66.791,26.395 66.244,27.069 64.880,27.201 L58.181,26.947 ZM38.830,43.516 C37.904,45.897 36.459,46.238 33.706,46.179 L26.455,45.918 C25.704,45.897 25.136,45.178 25.734,44.660 C25.734,44.660 26.022,44.380 26.322,44.064 C29.554,40.657 31.072,35.969 30.487,31.202 C30.302,29.700 29.890,28.253 29.261,26.900 C26.963,21.960 22.627,18.660 17.312,17.841 C16.720,17.779 16.182,18.213 16.111,18.809 L15.324,25.443 C15.236,26.179 15.700,26.853 16.403,27.012 C17.861,27.340 19.123,28.138 20.052,29.319 C21.120,30.674 21.594,32.363 21.390,34.074 C20.973,37.558 17.797,40.096 14.210,39.730 C8.210,39.009 3.260,35.131 0.965,29.353 C0.694,28.668 0.483,27.958 0.339,27.236 C-0.685,22.086 0.640,16.943 3.975,13.131 C7.270,9.363 12.199,7.302 17.149,7.616 C17.254,7.625 19.111,7.814 20.768,7.983 C22.125,8.121 24.168,8.264 24.205,8.267 C24.900,8.321 25.506,7.829 25.587,7.138 L26.154,1.419 C26.240,0.607 26.964,0.017 27.775,0.099 L52.260,2.652 C54.489,2.918 55.758,4.047 54.818,6.334 L38.830,43.516 Z" class="cls-1"/>
</svg>
