<?xml version="1.0" encoding="utf-8"?>
<!-- Generator: Adobe Illustrator 19.2.1, SVG Export Plug-In . SVG Version: 6.00 Build 0)  -->
<svg version="1.1" id="Layer_1" xmlns="http://www.w3.org/2000/svg" xmlns:xlink="http://www.w3.org/1999/xlink" x="0px" y="0px"
	 viewBox="0 0 112 68" style="enable-background:new 0 0 112 68;" xml:space="preserve">
<style type="text/css">
	.st0{fill:#FFC300;}
	.st1{fill-rule:evenodd;clip-rule:evenodd;fill:#FFC300;}
</style>
<path class="st0" d="M34.6,3.2c0-0.1-0.1-0.2-0.1-0.3c-0.1-0.3-0.2-0.3-0.5-0.4c-0.1,0-0.3,0-0.4-0.1c0,0-0.1-0.1-0.1-0.1
	c-0.1,0-0.1-0.1-0.2-0.1C33.2,2.1,33,2,33,1.9c-0.2-0.1-0.5,0-0.7-0.1c-0.2-0.1-0.4-0.2-0.6-0.3c-0.3-0.1-0.6-0.1-0.8-0.1
	c-0.2,0-0.5,0.2-0.7,0.2c-0.3,0-0.4-0.3-0.7-0.3c-0.1,0-0.1,0.1-0.1,0.1c-0.3,0-0.9,0.4-0.9,0.7c0,0.3,0.1,0.7,0.4,0.9
	c-0.1,0-0.1,0.1-0.2,0.1c-0.3,0.1-0.7,0.4-1,0.3c-0.1,0,0.3-0.2,0.2-0.3c-0.1-0.2-0.9-0.3-0.9-0.4c-0.1-0.1-0.1-0.3-0.1-0.3
	c-0.1-0.1-0.1-0.2-0.2-0.2c-0.1,0-0.6,0.1-0.6,0.1c-0.3,0.2-0.2,0.7-0.4,0.8c-0.1,0.1-0.3,0-0.5,0.1c-0.1,0-0.1,0.1-0.2,0.1
	c-0.2,0.1-0.3,0.3-0.5,0.3c-0.2,0-0.4-0.1-0.6-0.2c-0.3-0.1-0.6,0-1.1,0c-0.3,0-0.8-0.1-1.2-0.2c-0.2,0-0.2,0-0.3-0.1
	c-0.2-0.5,1.2-0.2,1.3-0.2c0.4,0,0.8-0.1,0.8-0.2c0.1-0.2-0.2-0.8-0.3-0.8c-0.1-0.1-0.3,0.1-0.6,0.1c-0.2,0-0.3-0.1-0.5-0.1
	c-0.2,0-0.4,0.1-0.6,0.1c-0.2,0-0.4,0-0.6-0.1c-0.1,0-0.2-0.1-0.3-0.1c-0.1,0-0.2-0.1-0.3-0.2c-0.3-0.1-0.9,0-1.2,0
	c-0.5,0.1-0.7,0.1-1.2,0.3C17.4,2.1,17,2,17,2.3c0,0.6,0.9,0,1.2,0c0.5-0.1,0.7,0.1,0.8,0.4c0.1,0.2-0.4-0.2-0.3,0.2
	c0,0.1,0.1,0.2,0.2,0.2c0.1,0.1,1.5,0.2,1.4,0.5c-0.1,0.2-1.1,0-1.2,0c-0.4,0.1-0.6-0.1-0.8-0.2C17.9,3.1,17.6,3,17.2,3
	c-0.2,0-0.5-0.1-0.7-0.1c-0.3,0-0.5,0.1-0.7,0.1c-0.3,0-0.4-0.2-0.7-0.2c-0.4-0.1-0.9,0-1.2,0c-0.4,0-0.7,0.2-1.1,0.3
	c-1.4,0.2-2.9-0.1-3.9-0.3C8.3,2.6,7.7,2.4,7.2,2.4c-0.9-0.1-2-0.1-2.7,0.1c-0.1,0-0.3,0-0.4,0.1C3.8,2.6,3.4,2.8,3.2,2.9
	C2.9,3,2.6,3,2.4,3.2C2,3.5,2.6,4.1,2.3,4.1c-0.7,0-0.9,0.1-1,0.3C1.3,4.6,1.5,4.7,1.6,4.7c0.1,0.1,0.4,0,0.3,0.2
	c0,0.1-0.2,0.2-0.4,0.3c-0.1,0-0.2,0.1-0.3,0.2C1.1,5.6,0.9,5.7,0.8,5.9c-0.1,0.1,0,0.4,0,0.7c0,0.3,0,0.2,0,0.4
	c0,0.1-0.2,0.2-0.2,0.4c0,0.1,0.3,0.3,0.4,0.4C1,7.9-0.2,9,0,9c0.2,0,1.3-1.2,1.4-1.3c0.1-0.1,0.2-0.2,0.3-0.3
	C1.9,7.1,1.9,7,2.1,6.9c0.1-0.1,0.2,0,0.4-0.1c0.1-0.1,0.2-0.2,0.3-0.2C3.3,6.3,3.5,6.6,4,6.8c0.3,0.1,0.7,0.1,1,0.2
	c0.2,0.1,0.3,0.2,0.4,0.3c0,0,0.1,0,0.1,0.1c0.1,0.1,0.2,0.2,0.3,0.2C6,7.7,6.2,7.9,6.3,8.2c0,0.2,0,0.3,0,0.6
	c0,0.2,0.1,0.4,0.1,0.6c0,0.1-0.1,0.2-0.1,0.3C6.1,9.9,6.1,10,6.1,10.4C6,10.6,6,10.8,6,11c0,0.2,0.4,0.5,0.3,0.5
	c-0.1,0.1-0.6,0.2-0.7,0.2c-0.1,0.2,0,0.4,0,0.4c0,0.1,0.2,0.2,0.2,0.2c0.1,0.1,0.3,0.2,0.3,0.3c0,0.1,0,0.3-0.2,0.4
	c-0.1,0.1-0.3,0.4-0.3,0.5c-0.2,0.4-0.5,0.8-0.7,1.1c-0.1,0.1-0.1,0.2-0.2,0.3c-0.1,0.1-0.2,0.2-0.2,0.2c-0.2,0.3-0.3,0.7-0.6,1.2
	c0,0.1-0.2,0.1-0.2,0.2c0,0,0,0.2-0.1,0.2c-0.1,0.3-0.2,0.6-0.3,0.8c0,0.3,0.1,0.6,0.2,1c0,0.2,0,0.5,0,0.7c0,0.1,0.1,0.2,0.1,0.3
	c0,0.1,0,0.3,0.1,0.3c0.2,0.5,0.8,0.7,1,1.1c0.1,0.3-0.1,0.4-0.1,0.7c0,0.3,0.3,0.9,0.5,1c0.1,0.1,0,0.1,0.1,0.2c0,0.1,0,0.2,0,0.3
	c-0.1,0.3-0.2,0.5-0.1,0.7c0.1,0.4,0.5,0.4,0.6,0.9c0,0.2,0.4,1.3,0.7,1.5c0.2,0.1-0.2-0.9-0.3-1.4c-0.1-0.3-0.1-0.6-0.2-0.9
	c0-0.1-0.2-0.3-0.3-0.4c-0.1-0.2-0.4-0.8-0.4-1c0-0.3,0-0.8,0.3-0.8c0.3,0,0.6,1,0.7,1.2c0,0.1,0,0.3,0.1,0.4c0,0,0.1,0.1,0.1,0.1
	c0.1,0.2,0.2,0.5,0.3,0.7c0,0.1,0.1,0.1,0.1,0.2c0,0,0,0.1,0.1,0.1c0,0,0.1,0.1,0.1,0.2c0.1,0.1,0.1,0.1,0.2,0.2
	c0.1,0.1,0.2,0.3,0.2,0.4c0.1,0.2,0.3,0.5,0.4,0.7c0.1,0.2,0.2,0.4,0.2,0.7c0.1,0.6-0.1,0.9,0,1.2c0,0.1,0.3,0.4,0.4,0.6
	c0.1,0.1,0.2,0.1,0.3,0.2C9,28.6,9,28.7,9.1,28.8c0.1,0.1,0.2,0.2,0.3,0.2c0.2,0.1,0.4,0.2,0.6,0.3c0.1,0.1,0.2,0.2,0.3,0.2
	c0.1,0,0.2,0,0.3,0.1c0.1,0,0.2,0.1,0.3,0.2c0.4,0.2,0.6,0.3,1.1,0.2c0.3,0,0.5-0.2,0.7-0.2c0.4,0,0.7,0.5,1,0.8c0,0,0.1,0,0.2,0.1
	c0,0,0,0.1,0.1,0.1c0,0,0.1,0,0.2,0.1c0.1,0.1,0.3,0.3,0.4,0.4c0.3,0.1,0.8,0,1.1,0.1c0,0,0,0.1,0.1,0.1c0.1,0,0.1,0,0.2,0.1
	c0.1,0.1,0.2,0.4,0.3,0.5c0.2,0.4,0.4,1,0.7,1.3c0.1,0.1,0.3,0.2,0.5,0.3c0,0,0,0.1,0.1,0.1c0.1,0.1,0.2,0.1,0.4,0.2
	c0.3,0.2,0.8,0.5,1.1,0.4c0.2-0.1,0.3-0.2,0.3-0.3c-0.1-0.3-0.8-0.3-0.9-0.4c0,0-0.1,0-0.1-0.1c-0.5-0.4-0.5-1.5-0.4-2.2
	c0-0.3,0.2-0.6,0.2-0.9C17.6,30,16.9,30,16.4,30c-0.3,0-0.6,0.1-0.7,0.1c-0.4-0.2-0.2-0.5,0-0.9c0.1-0.2,0.2-0.4,0.3-0.6
	c0.2-0.4,0.5-0.9,0.5-1.2c0-0.3-0.9-0.3-1.1-0.2c0,0-0.1,0-0.1,0.1c-0.2,0.2-0.4,0.6-0.5,0.7c-0.1,0.2-0.2,0.3-0.4,0.4
	c-0.3,0.2-0.8,0.5-1.3,0.4c-0.3,0-0.6-0.3-0.8-0.6c-0.1-0.1-0.1-0.3-0.2-0.4c-0.1-0.1-0.2-0.3-0.2-0.4c-0.1-0.2-0.1-0.3-0.1-0.5
	c0-0.2-0.1-0.3-0.1-0.5c0-0.4,0.3-1,0.5-1.6c0.1-0.2,0.1-0.6,0.2-0.7c0,0,0.1,0,0.1-0.1c0-0.1,0-0.2,0.1-0.2
	c0.1-0.3,0.3-0.5,0.5-0.6c0.4-0.2,0.8-0.4,1.2-0.6c0.1-0.1,0.3-0.2,0.5-0.2c0.2,0,0.5,0.1,0.6,0.2c0.1,0,0.3,0.3,0.6,0.2
	c0.2,0,0.3-0.2,0.4-0.3c0.2-0.1,0.3-0.2,0.5-0.3c0.4-0.2,0.9,0.2,1.2,0.2c0.3,0.1,0.4-0.1,0.6,0c0.2,0.1,0.5,0.4,0.5,0.6
	c0,0.3,0,0.7,0.1,1c0.1,0.3,0,0.4,0.2,0.6c0.1,0.1,0.2,0.4,0.3,0.4c0.2,0,0.4-0.5,0.4-0.9c0-0.5-0.2-0.8-0.2-1
	c-0.1-0.7,0.1-1.1,0.3-1.4c0.2-0.3,0.3-0.4,0.5-0.6c0.1-0.1,0.2-0.2,0.3-0.3c0.1-0.1,0.1-0.1,0.2-0.1c0.1-0.1,0.2-0.3,0.4-0.3
	c0.2-0.2,0.5-0.2,0.7-0.3c0.1-0.1,0.2-0.3,0.4-0.4c0.2-0.2,0.3-0.3,0.3-0.4c0-0.1,0-0.4,0.1-0.7c0-0.1,0-0.2,0.2-0.3
	c0.1-0.1,0.1,0,0.2,0c0,0,0.1,0.1,0.1,0.1c0.1,0,0.1-0.4,0.1-0.4c0.3-0.3,0.5-0.4,0.8-0.7c0.1-0.1,0.2-0.2,0.4-0.3
	c0.1-0.1,0.3-0.1,0.5-0.2c0.2-0.1,0.3-0.2,0.5-0.3c0.2-0.1,0.4-0.1,0.5-0.2c0.1,0,0.3,0,0.3-0.1c0-0.3,0.2-0.6,0.5-0.8
	c0.1-0.1,0.2,0,0.3-0.1c0.1,0,0.1-0.2,0.2-0.2c0.2-0.1,0.4-0.2,0.6-0.3c0.2-0.1,1-0.4,1.3-0.4c0.9,0-0.6,0.5-0.4,0.7
	c0.1,0.2,1.3-0.3,1.4-0.4c0.2-0.1,0.7-0.2,0.9-0.4c0.4-0.3-0.9-0.2-1-0.4c-0.1-0.1-0.4-0.3-0.4-0.6c0-0.3,0.5-0.5,0.3-0.8
	c0,0-0.1-0.2-0.2-0.2c-0.2-0.1-0.7,0.2-0.8,0c0-0.1,0.1-0.2,0.2-0.3c0.2-0.2,0.7-0.3,1-0.3c0.3,0,0.8,0,1.3,0c0.3,0,0.6-0.1,1-0.2
	c0.3-0.1,0.4-0.2,0.7-0.1c0.1,0,0.4,0.2,0.3,0.6c-0.1,0.2-0.9,0.7-0.9,0.8c0.1,0.4,1.2,0.4,1.2,0.3c0,0,1.1,0,1.1-0.5
	c0-0.1-0.9-0.6-1-1c-0.1-0.4-0.4-0.4-0.2-0.5c0.5-0.3,1.3-0.8,0.9-1.2c-0.1-0.1-0.1-0.1-0.2-0.1c0,0,0-0.1-0.1-0.1
	c-0.2-0.1-0.5,0.1-0.6,0c-0.1-0.1-0.1-0.3-0.2-0.7c-0.1-0.2-0.2-0.3-0.2-0.4c-0.1-0.6,0.1-1.4-0.3-1.6c-0.3-0.1-0.3,0.1-0.4,0.2
	c-0.2,0.1-0.3,0.1-0.4,0.2c-0.2,0.1-0.5,0.3-0.8,0.3c-0.2-0.1-0.3-0.2-0.4-0.4c-0.1-0.2,0.1-0.5,0.1-0.8c0-0.2-0.3-0.4-0.5-0.5
	C30.6,6,30.5,6,30.4,5.9c-0.1,0-0.2-0.1-0.3-0.2c-0.6-0.2-1.1,0.1-1.3,0.4c-0.1,0.1-0.1,0.2-0.1,0.3c-0.1,0.2-0.2,0.3-0.3,0.4
	c0,0,0,0.1-0.1,0.1c0,0.1-0.2,0.1-0.2,0.1c0,0-0.1,0.2-0.1,0.2c-0.1,0.1-0.1,0.2-0.2,0.2c0,0.1,0,0.4-0.1,0.7c0,0-0.1,0.1-0.1,0.2
	c-0.2,0.3-0.5,0.5-0.7,0.7c0,0-0.1,0-0.2,0.1c-0.1,0.1-0.2,0.2-0.3,0.3c-0.1,0.1-0.3,0.2-0.4,0.3c0,0-0.1,0.1-0.1,0.2
	c-0.1,0.1-0.1,0.1-0.2,0.2c-0.1,0.2-0.1,0.4-0.2,0.6c0,0.1-0.4,0.4-0.4,0.4c-0.1,0.1-0.3,0.1-0.4,0.1c-0.2-0.1-0.3-0.3-0.4-0.5
	c0-0.4,0.3-0.7,0.2-1c-0.1-0.3-0.6-0.5-0.8-0.7c-0.2-0.1-0.3-0.2-0.5-0.2c-0.2-0.1-0.5-0.2-0.6-0.3c-0.1,0-0.3,0-0.4-0.1
	c-0.1-0.1-0.2-0.2-0.4-0.4c-0.1-0.2-0.3-0.3-0.3-0.6c0-0.2,0.4-0.6,0.7-0.9c0.3-0.3,0.6-0.5,1-0.7c0.2-0.1,0.4-0.1,0.6-0.2
	c0.4-0.3,0.4-0.5,0.8-0.6c0.1,0,0.2,0.1,0.3,0.1c0.1,0,0.2,0,0.3-0.1c0.1,0,0.7-0.1,0.8-0.2c0.1,0,0.2-0.2,0.2-0.2
	c0.1-0.1,0-0.2,0.1-0.2c0.2-0.1,0.6-0.2,0.7-0.1c0.1,0.1-0.1,0.3-0.2,0.3c0,0-0.4,0.4-0.2,0.6C26.7,5.5,27.1,5,27.4,5
	c0.2,0,0.8,0.4,0.9,0.1c0.1-0.2-0.4-0.5-0.4-0.6c-0.1-0.1-0.4,0.1-0.4-0.2c0-0.3,0.2-0.2,0.4-0.2c0.2,0,0.5,0,0.6-0.1
	c0.2,0,0.5-0.2,0.6-0.3c0,0,0-0.1,0.1-0.1c0.1-0.1,0.2-0.1,0.3-0.2c0,0,0.1-0.1,0.1-0.1c0,0,0.1,0,0.1,0c0.2,0,1.5-0.9,1.6-0.8
	c0.3,0,0.4,0.2,0.6,0.3c0.3,0.2,0.5,0.4,0.7,0.6c0.1,0.1,0.2,0.1,0.2,0.1c0.1,0.1,0.1,0.2,0.1,0.3c-0.1,0.3-0.4,0-0.8,0.1
	c-0.2,0-0.3,0.1-0.4,0.2c-0.2,0.1-0.4,0.3-0.4,0.4c0,0.2,0.1,0.3,0.3,0.5c0.1,0.2,0.3,0.4,0.4,0.4c0,0,0,0.1,0.1,0.1
	c0.1,0.1,0.6,0.2,0.7,0.2c0.1,0,0.1-0.1,0.2-0.2C33,5.5,33,5.5,33.1,5.4c0.3-0.2,0.4,0,0.6-0.2c0.1-0.1,0.1-0.3,0.1-0.4
	c0-0.2-0.1-0.2-0.1-0.4c0.2-0.4,0.5-0.2,0.9-0.2c0.3,0,0.6,0.1,0.6-0.2C35.4,3.7,34.9,3.6,34.6,3.2C34.6,3.2,34.9,3.6,34.6,3.2z
	 M21.8,13.1c0.1,0.2,0,0.4,0.2,0.6c0.1,0.1,0.2,0.3,0.3,0.4c0.2,0.1,0.5-0.1,0.7,0c0.1,0,0.1,0.1,0.2,0.2c0,0,0.2,0.1,0.2,0.2
	c0.1,0.1,0.2,0.4,0.7,0.5c0.1,0,0.5,0,0.5,0c0.2,0.1-0.1,0.3-0.1,0.4c0,0-0.5,0.3-0.9-0.1c0,0,0.1-0.2,0-0.2
	c-0.2-0.3-0.5-0.2-0.5-0.2c-0.1,0-0.4,0-0.4,0.1c-0.1,0.1-0.5,0.5-0.5,0.7c0,0.2,0.7,0.2,0.6,0.3c-0.1,0.3-0.6,0.5-0.6,0.5
	c-0.4-0.1-0.4,0-0.5-0.2c-0.1-0.2,0.6-0.5,0.2-1.1c-0.1-0.1,0.4-0.6-0.2-0.7c-0.1,0-0.5,0.2-0.7,0.4c-0.2,0.1-0.5,0.4-0.6,0.6
	c-0.1,0.2-0.3,1-0.7,1c-0.3,0-0.3-0.4-0.2-0.6c0-0.2,0.2-0.4,0.3-0.5c0.3-0.4,0.4-0.7,0.6-0.9c0,0,0.1,0,0.1-0.1
	c0.1-0.1,0.4-0.3,0.8-0.4c0.2-0.1-0.5-0.1-0.8-0.4c-0.1,0-0.1-0.1-0.2-0.1c-0.3,0-0.7,0.4-0.9,0.1c-0.1-0.1,0-0.2,0.1-0.3
	c0.1-0.1,0.1-0.2,0.3-0.2c0.2-0.1,0.5-0.1,0.7-0.2c0.3-0.1,0.5-0.2,0.7-0.2c0.1,0,0.2-0.1,0.3-0.1C21.5,12.7,21.7,12.9,21.8,13.1z"
	/>
<g>
	<path class="st0" d="M109.1,3.5c-0.1-0.1-0.3-0.2-0.4-0.2c-0.1,0-0.2,0-0.3,0c-0.2,0-0.4,0.1-0.5,0.1c0,0,0,0-0.1,0
		c-0.1,0-0.2-0.1-0.4-0.2c-0.1-0.1-0.2-0.2-0.4-0.2c0,0-0.1,0-0.1,0c0,0-0.1,0-0.1,0c0,0,0,0-0.1,0c-0.1,0-0.2-0.1-0.3-0.1
		c-0.2,0-0.4-0.1-0.6-0.1c-0.9-0.1-1.6-0.3-2.5-0.5c-0.2,0-0.4-0.1-0.6-0.1c-0.2,0-0.5-0.1-0.7-0.1c0,0,0,0,0,0c0,0,0,0-0.1,0
		c-0.2,0-0.4,0.2-0.7,0.3c-0.2,0-0.5-0.1-0.9-0.2c-0.7-0.1-1.5,0.1-2.1,0c-0.1,0-0.1-0.1-0.2-0.1c-0.3-0.1-0.6-0.2-0.9-0.2
		c-1-0.1-2,0.1-2.7-0.1c-0.2,0-0.3-0.2-0.4-0.2c-0.2-0.1-0.4-0.1-0.5-0.2c0,0-0.1,0-0.1,0c-0.1,0-0.2,0-0.3,0.1c0,0,0,0,0,0
		c-0.1,0-0.2,0-0.3-0.1c-0.4-0.1-0.9-0.1-1.3-0.1c-0.1,0-0.1,0-0.2,0c-0.2,0.1-0.4,0.3-0.5,0.4c0,0,0,0-0.1,0c0,0,0,0-0.1,0
		c0,0-0.1,0-0.1,0c0,0-0.1,0-0.1,0c-0.3,0-0.7-0.1-1,0c0,0,0,0-0.1,0c-0.2,0-0.3,0.1-0.5,0.1c0,0,0,0-0.1,0c-0.1,0-0.3-0.1-0.4-0.1
		c-0.1-0.1-0.2-0.1-0.4-0.2c-0.3-0.1-0.4-0.2-0.7-0.3C87.1,1.1,86.9,1,86.7,1c-0.2,0-0.4,0-0.7,0c-0.1,0-0.3,0-0.4,0.1
		c-0.1,0-0.1,0-0.2,0c-0.5,0-1.1-0.1-1.5-0.1c-0.4,0-0.8,0-1.2,0c-0.3,0-1-0.1-1.1-0.2c-0.2-0.1-0.2-0.3-0.3-0.4
		c-0.2-0.3-1.1-0.1-1.8-0.2c-0.6,0-1-0.3-1.3-0.3c0,0,0,0,0,0c0,0,0,0,0,0c0,0,0,0-0.1,0.1c0,0-0.1,0-0.1,0c-0.2,0-0.3,0.1-0.5,0.1
		c0,0-0.1,0-0.1,0c-0.2,0-0.4-0.1-0.5-0.1c0,0,0,0,0,0c0,0,0,0,0,0c-0.1,0,0,0-0.1,0.1c0,0-0.1,0.1-0.2,0.1c-0.2,0-0.5,0-0.7,0.1
		c-0.2,0-0.5,0-0.7,0.1c0,0,0,0,0,0c0,0,0,0,0,0c-0.1,0-0.2,0.1-0.3,0.2c-0.2,0.1-0.4,0.2-0.6,0.3c0,0,0,0,0,0c-0.2,0-0.4,0-0.6,0
		c0,0,0,0-0.1,0c-0.2,0-0.4,0.2-0.7,0.3c-0.1,0-0.2,0.1-0.4,0.1c-0.2,0.1-0.4,0.1-0.4,0.1c-0.2,0.1-0.1,0.3-0.3,0.3c0,0,0,0,0,0
		c-0.4,0.1-0.7-0.5-1.2-0.6c-0.1,0-0.2,0-0.3,0C70,1.3,69.8,1.7,70.1,2c0.1,0.2,0.5,0.3,0.4,0.5c0,0,0,0-0.1,0
		c-0.2,0-0.4-0.1-0.5-0.1c0,0-0.6,0-0.7-0.1c-0.2,0-0.5-0.2-0.7-0.2c0,0-0.1,0-0.1,0c-0.1,0-0.2,0.1-0.4,0.1c-0.1,0-0.3,0-0.4,0
		c0,0-0.1,0-0.1,0c-0.2,0.1-0.3,0.2-0.5,0.2c0,0,0,0,0,0c-0.4,0.1-0.7-0.1-1-0.1c0,0-0.1,0-0.1,0c-0.4,0.1-0.9,0.4-1.3,0.5
		c-0.1,0-0.3,0-0.4,0c-0.2-0.1-0.3-0.2-0.5-0.2c0,0,0,0,0,0c0,0,0,0,0,0c-0.2,0-0.4,0.5-0.6,0.6c0,0,0,0-0.1,0c0,0-0.1,0-0.1,0
		c0,0,0,0-0.1,0c-0.1,0-0.2,0.2-0.3,0.2c-0.1,0.1-0.2,0.2-0.3,0.2C62.2,4,62.2,4,62.1,4C62.1,4,62,4,62,4c0,0-0.1,0-0.2,0.1
		c0,0-0.3,0.4-0.3,0.4c0,0,0,0,0,0c-0.1,0-0.3,0-0.3,0c-0.2,0-0.4-0.3-0.5-0.4c0,0-0.1-0.2-0.2-0.3c-0.1-0.1,0-0.1-0.3-0.2
		c0,0-0.2,0-0.2,0c0,0,0-0.1,0-0.1c0-0.1,0.1-0.1,0.3-0.2c0.3-0.1,0.6,0,0.8,0.1c0.2,0.1,0.6,0.3,0.9,0.2c0,0,0.1,0,0.1,0
		c0.1,0,0.5-0.2,0.5-0.4c0,0-0.1-0.1-0.2-0.2c-0.2-0.1-0.8-0.4-1.1-0.5c-0.4-0.1-1,0-1.4-0.1c-0.1,0-0.3-0.1-0.4-0.2
		c-0.4-0.2-0.7-0.3-1.2-0.4c-1-0.1-1.9,0.2-2.5,0.4c-0.2,0.1-0.5,0.1-0.7,0.2c-0.1,0-0.1,0-0.1,0.1c-0.4,0.3-0.8,0.9-1.1,1.2
		c-0.1,0.1-0.5,0.4-0.6,0.5c0,0-0.1,0.1-0.2,0.1c0,0-0.1,0.1-0.2,0.1c0,0,0,0,0,0c0,0,0,0,0,0c0,0,0,0-0.1,0
		c-0.3,0.2-0.5,0.4-0.8,0.6c-0.1,0.1-0.3,0.1-0.4,0.2c-0.1,0.1-0.2,0.2-0.3,0.3c-0.1,0.3,0.1,1.1,0.1,1.1c0,0,0,0.1,0.1,0.1
		c0.2,0.3,0.4,0.4,0.6,0.4c0.1,0,0.3,0,0.4-0.1c0.2-0.1,0.3-0.1,0.4-0.1c0.1,0,0.2,0.1,0.3,0.2c0.2,0.2,0.3,0.5,0.4,0.7
		c0.1,0.1,0.1,0.3,0.2,0.4c0,0,0,0,0,0c0,0,0.1,0,0.1,0c0,0,0,0,0,0c0,0,0.1,0.2,0.1,0.2c0.1,0,0.1,0,0.2,0c0.3,0.1,0.5-0.2,0.6-0.5
		c0.1-0.2,0.1-0.4,0.3-0.7c0.2-0.3,0.6-0.4,0.7-0.8c0.1-0.2-0.4-0.5-0.4-0.6c0,0,0-0.1-0.1-0.2c-0.1-0.1-0.1-0.1-0.1-0.3
		c0-0.1,0.2-0.4,0.4-0.6c0.2-0.2,0.4-0.2,0.5-0.4c0.1-0.1,0.2-0.3,0.4-0.4c0,0,0,0,0,0c0,0,0,0,0.1-0.1c0.1-0.1,0.2-0.2,0.3-0.3
		c0,0,0.1,0,0.1,0c0.2,0,0.2,0.2,0.3,0.3c0,0.2-0.2,0.5-0.3,0.6c-0.1,0.2-0.3,0.4-0.3,0.7c0,0.1,0.1,0.4,0.2,0.6
		c0.2,0.3,0.4,0.4,0.8,0.3c0.2,0,0.4,0,0.6-0.1c0,0,0.1,0,0.2,0c0.4,0,1.1,0,0.9,0.2c-0.3,0.3-0.5,0.4-0.8,0.4
		c-0.3,0-0.5-0.1-0.6-0.1c0,0-0.1,0-0.1,0c-0.2,0.1-0.3,0.2-0.3,0.2c0,0.1,0.2,0.3,0.2,0.3c0.2,0.2,0,0.4,0,0.5c0,0-0.1-0.1-0.2-0.1
		c0,0-0.1,0-0.1,0c0,0-0.1,0-0.1,0c-0.2,0.1-0.3,0.1-0.4,0.2c-0.1,0.2,0,0.5-0.1,0.8c-0.1,0.1-0.3,0.4-0.5,0.4c-0.2,0.1-0.6,0-0.8,0
		C55,9,54.7,9.4,54.5,9.4c0,0,0,0,0,0c-0.1,0-0.2-0.1-0.4-0.1c0,0-0.1,0-0.1,0c-0.2,0-0.6,0.1-0.8,0c-0.1,0-0.1,0-0.1-0.1
		c-0.1-0.2,0.5-0.3,0.5-0.3c0.2-0.1,0.1-0.2,0.1-0.2c0-0.1,0-0.3-0.2-0.4c0,0,0,0,0,0c-0.1,0-0.3,0.1-0.5,0.1c0,0,0,0,0,0
		c-0.1-0.1,0-0.4-0.1-0.4c0,0,0.1-0.2,0-0.2c0,0-0.1,0-0.1,0c-0.2,0-0.5,0.5-0.5,0.8c0,0.1,0.1,0.2,0.1,0.3c0,0.2,0.2,0.3,0.1,0.4
		c-0.1,0.1-0.2,0.3-0.3,0.3c-0.2,0.1-0.6,0-0.7,0.1c-0.1,0.1-0.3,0.3-0.5,0.5c-0.4,0.4-0.8,0.7-1.2,1c-0.3,0.3-0.5,0.5-0.8,0.6
		c-0.2,0.1-0.1,0-0.4,0.1c-0.1,0-0.2,0.1-0.3,0.2c-0.3,0.1-0.6,0-0.6,0.3c0,0.1,0,0.2,0,0.2c0,0,0.1,0,0.1,0.1
		c0.1,0.1,0.1,0.2,0.2,0.2c0,0,0.1,0,0.2,0.1c0,0,0,0,0,0c0,0,0,0.1,0,0.2c0,0,0,0,0,0c0,0,0,0,0,0c0,0.1,0.1,0.1,0.1,0.1
		c0,0,0.1,0.1,0.1,0.1c0.1,0.3,0.1,0.4,0.1,0.7c-0.1,0.5-0.2,0.8-0.6,0.9c-0.3,0.1-0.6-0.1-0.9-0.2c-0.3-0.1-0.8-0.1-1,0
		c0,0-0.3,0.3-0.3,0.3c-0.1,0.1-0.1,0.5-0.1,0.7c-0.1,0.5-0.2,1.6-0.1,2.1c0,0.1,0,0.2,0.1,0.2c0.1,0.2,0.4,0.1,0.6,0.3
		c0.2,0.1,0.3,0.2,0.4,0.3c0,0,0,0.1,0,0.2l0.3,0c0,0,0,0,0,0l0,0c0,0,0,0,0,0c0-0.4,0.7-0.3,1-0.4c0.2-0.1,0.4-0.2,0.6-0.4
		c0.1-0.1,0.2-0.3,0.3-0.4c0.1-0.3,0.1-0.6,0.3-0.9c0,0,0.1-0.1,0.1-0.1c0,0,0-0.1,0.1-0.1c0.2-0.2,0.6-0.4,0.7-0.6
		c0.2-0.2,0.3-0.6,0.5-0.7c0.2-0.1,0.6,0,0.8-0.1c0.5-0.1,0.8-0.5,1.2-0.5c0.1,0,0.2,0,0.2,0.1c0.2,0.1,0.3,0.3,0.4,0.5
		c0,0.1,0.1,0.2,0.1,0.3c0,0,0,0,0,0.1c0.1,0.1,0.3,0.5,0.4,0.5c0,0,0.2,0.1,0.2,0.1c0,0,0.1,0,0.2,0.1c0.1,0.1,0.3,0.1,0.4,0.2
		c0.2,0.2,0.3,0.2,0.5,0.5c0,0.1,0,0.3,0,0.5c-0.1,0.3-0.3,0.4-0.4,0.4c-0.1,0-0.2-0.1-0.4-0.1c-0.1,0-0.4,0.1-0.4,0.1
		c0,0.3,0.7,0.7,0.8,0.8c0.1,0,0.1,0,0.2-0.1c0,0,0.1-0.2,0.1-0.2c0.1-0.2,0.2-0.3,0.4-0.5c0,0,0,0,0,0c0.1-0.1,0.2-0.2,0.2-0.3
		c0,0,0,0,0,0c0,0,0-0.1,0-0.1c0,0,0,0,0,0c0,0,0-0.1,0-0.1c0-0.1-0.3-0.2-0.2-0.4c0,0,0,0,0.1-0.1c0-0.1,0.4,0.1,0.5,0.1
		c0,0,0.1-0.1,0.2-0.2c0,0,0,0,0,0c0,0-0.2-0.1-0.3-0.2c0,0,0,0,0,0c0,0-0.2-0.1-0.2-0.2c0,0,0,0,0,0c-0.1-0.1-0.2-0.1-0.3-0.2
		c-0.2-0.2-0.5-0.4-0.6-0.5c-0.2-0.1-0.4-0.4-0.5-0.6c-0.2-0.2-0.5-0.7-0.1-0.9c0.1,0,0.2,0,0.3,0c0.1,0.1,0.3,0.2,0.4,0.4
		c0.1,0,0.1,0.1,0.2,0.1c0,0,0.1,0.1,0.1,0.1c0,0,0,0,0,0c0.1,0,0.2,0.1,0.3,0.1c0,0,0,0,0,0c0.1,0.1,0.2,0.2,0.3,0.2c0,0,0,0,0.1,0
		c0.1,0.1,0.2,0.1,0.3,0.2c0.2,0.1,0.4,0.2,0.4,0.4c0.1,0.2,0.1,0.4,0.2,0.6c0.1,0.2,0.1,0.5,0.2,0.7c0.1,0.3,0.2,0.4,0.3,0.5
		c0,0,0.1,0.1,0.2,0.1c0,0,0,0,0,0c0,0,0.1,0.1,0.1,0.1c0,0.3,0,0.2,0,0.3c0,0.2,0.5,0.6,0.7,0.7c0.2,0.2,0.4,0.5,0.2,0.5
		c0,0,0,0,0,0.1c0,0.1,0.1,0.2,0.1,0.2c0.1,0.1,0.2,0,0.3,0c0.1,0,0.2,0.2,0.5,0.2c0.2,0,0.3-0.3,0.3-0.3c0-0.4-0.4-0.2-0.8-0.5
		c-0.1-0.1,0-0.3,0-0.4c0.1-0.1,0.5-0.3,0.4-0.5c0-0.2-1.3-1-1.3-1.3c0-0.1,0.1-0.2,0.2-0.2c0.2,0,0.3,0.1,0.6-0.1
		c0.1-0.1,0.2-0.2,0.3-0.1c0,0,0,0,0,0c0,0,0,0,0,0c0,0,0,0,0,0c0,0,0,0,0,0c0,0,0,0,0,0c0.1,0.1,0.2,0.3,0.3,0.5
		c0.1,0.2,0.1,0.4,0.3,0.6c0.1,0.2,0.3,0.5,0.6,0.5c0.3,0.1,0.5-0.1,0.8-0.1c0.2,0,0.4,0.1,0.6,0.2c0,0,0,0.1,0.1,0.2
		c0,0.1,0.2,0.3,0,0.4c-0.1,0.1,0.1,0.3,0.1,0.3c0,0,0.1,0,0.1,0c0,0,0.3-0.2,0.4-0.4c0-0.1-0.3-0.2-0.2-0.3c0-0.1,0-0.2,0-0.2
		c0.1,0,0.2,0,0.3-0.1c0.2,0,0.4-0.1,0.5,0.1c0.1,0.1,0.1,0.3,0.1,0.5l0,0c0.1-0.1,1-0.4,1.6-0.5c0.3,0,1.2-0.1,1.3-0.4
		c0.2-0.4,0.2-0.4,0.1-1c0-0.1,0.2-0.2,0.3-0.2c0.1,0,0.2,0.4,0.5,0.4c0.2,0,0.5-0.6,0.8-0.4c0.1,0.1,0.2,0.2,0.3,0.3
		c0-0.2,0.1-0.5,0.1-0.8c-0.1-0.4-0.4-0.7-0.6-1.1c-0.5-0.7-0.8-1.1-0.3-1.7c0,0,0.1-0.1,0.2-0.1c0,0,0.3-0.3,0.3-0.3
		c0,0,0.1,0,0.1-0.1c0-0.2-0.1-0.5-0.1-0.5c0,0-0.7-0.5-0.8-0.8c0-0.4,0.5-1.2,0.9-1.4c0.4,0,0.7,0.1,0.7,0.1
		c0.1,0.1,0.5,0.3,0.6,0.2c0.1-0.1,0.2-0.5,0.2-0.5l0-0.1c0,0,0,0,0,0c0.1,0.1,0.8,0.6,1,0.5c0.1-0.1,0.9,0.2,0.9,0.2l1-0.2
		c0,0,0.7-0.1,0.9-0.1c0.2,0,0.5-0.1,0.8-0.3c0.2-0.1-0.4-1.3-0.4-1.3s0-0.1,0-0.2l0,0c0.1,0,0.5,0,0.9,0.5c0.1,0.1,0.1,0.2,0.2,0.3
		c0.2,0.3,0.4,0.5,0.7,0.7c0.4,0.3,0.9,0.5,1.1,0.6c0.1,0,0.2,0.1,0.4,0.1c0.9,0.3,2.6,0.8,2.9,0.8c0.4,0,0.7-0.3,0.9-0.6
		c0.1-0.1,0.1-0.2,0.1-0.3c0-0.2,0-0.4,0.2-0.6c0.1-0.1,0.1-0.1,0.2-0.1c0,0,0,0,0,0c0.2,0.2,0.8,0.1,1.2,0.1
		c0.1,0.1,0.1,0.2,0.2,0.2l0,0c0.1,0.2,0.2,0.3,0.3,0.2c0,0,0.1,0,0.1-0.1c0.1,0.1,0.1,0.2,0.3,0.2c0.3,0,0.5,0.1,0.7,0.1
		c0.3,0.1,0.2,0.5,0.5,0.3c0.3-0.3,0.5-0.4,0.8-0.5c0.2,0,0.4-0.2,0.7-0.4C85.8,9.9,86,10,86,10.1c0.7,0.8,1.8,0.4,1.8,0.4l0,0l0,0
		c0,0,2.3,0.2,2.6-0.3c0.1-0.1,0.1-0.3,0.1-0.4l0.8-0.1l1.1-0.4c0.3,0.1,0.9,0.4,1.3,0.3c0.1,0,0.8-0.5,1.5-0.1
		c0.5,0.3,0.9,1.5,1.4,1.9c0.4,0.3,1.3-0.1,1.9-0.2l0.5,1.6l0.2,1.4c0.1,0,0.1,0.1,0.2,0.2l0,0c0.1,0.2,0.1,0.3,0.3,0.3
		c0,0,0.1,0,0.1,0c0.2,0,0.3-0.3,0.4-0.4c0.1-0.4,0.3-0.7,0.3-1.1c0.2-1.3-0.2-2.2-0.6-2.8c-0.2-0.3-0.4-0.7-0.6-1
		c-0.2-0.2-0.5-0.4-0.6-0.4c-0.1,0-0.1,0-0.2,0c-0.3,0-0.5,0.1-0.8,0.1c0,0-0.1,0-0.1,0c-0.2-0.1-0.5-0.2-0.5-0.5
		c0-0.2,0.1-0.3,0.1-0.3c0.1-0.4,0.1-1,0.3-1.2c0,0,0.1,0,0.1-0.1c0-0.1,0-0.1,0.1-0.2c0.1-0.1,0.4-0.3,0.7-0.3c0.1,0,0.2,0,0.3,0
		c0.3,0,0.6,0,0.9,0c0.1,0,0.1,0,0.2,0c0.2,0,0.4,0,0.5-0.1c0,0,0,0,0,0c0.2,0,0.6,0.2,0.8,0.2c0.1,0,0.1,0,0.2,0
		c0.3-0.2,0.1-0.6,0.3-1c0-0.1,0.2-0.2,0.3-0.2c0,0,0,0,0.1,0c0.1,0,0.2,0,0.3,0.1c0.1,0,0.5,0.2,0.5,0.2c0,0,0,0,0,0c0,0,0,0,0,0
		c0.1,0,0.4-0.5,0.6-0.5c0,0,0,0,0,0c0.1,0,0.2,0.1,0.3,0.2c0.1,0.2,0.1,0.7,0.1,0.9c0,0.2-0.1,0.4-0.1,0.5c-0.1,0.4-0.2,0.7-0.2,1
		c0,0.1,0.2,0.4,0.3,0.6c0,0.1,0,0.2,0.1,0.2c0,0,0,0.1,0.1,0.2c0.3,0.5,0.2,0.7,0.6,1.1c0.2,0.2,0.1,0.8,0.3,1.1
		c0.1,0.2,0.6-0.4,0.6-0.6c0,0,0,0,0-0.1c0.2,0.2,0.3,0.3,0.5,0.2c0.1-0.1,0.2-0.3,0.2-0.4c0-0.2-0.1-0.3-0.1-0.6
		c0-0.6,0.1-0.8-0.1-1.2c-0.2-0.5-0.4-0.6-0.8-1c0,0-0.1-0.1-0.2-0.1c0-0.2,0-0.4,0-0.5c0,0,0.1-0.2,0.2-0.3
		c0.1-0.1,0.2-0.1,0.3-0.2c0.2-0.1,0.4-0.2,0.6-0.3c0.1,0,0.2,0,0.3,0c0,0,0,0,0.1,0c0,0,0.1,0,0.1,0c0.2-0.1,0.5-0.5,0.7-0.6
		c0,0,0.1-0.1,0.1-0.1c0,0,0.1,0,0.1,0c0.1,0,0.1,0,0.2,0c0,0,0.1,0,0.1,0c0.1,0,0.2-0.1,0.2-0.3c0-0.4-0.9-0.3-1.1-0.5
		c0,0-0.1-0.3-0.1-0.3c0-0.2,0.3-0.3,0.6-0.3c0.1,0,0.1,0,0.2,0c0.3,0.1,0.6,0.1,0.8,0.2c0.3,0.1,0.5,0.2,0.7,0.2c0.1,0,0.1,0,0.2,0
		c0.1,0,0.2-0.2,0.2-0.2C109.3,3.7,109.3,3.6,109.1,3.5z M63.9,15.5c-0.3,0-0.5-0.1-0.8-0.2c-0.1,0-0.2-0.1-0.4-0.1
		c-0.2-0.1-0.7-0.3-1.2-0.3c-0.3,0-0.6,0.2-0.9,0.3c-0.1,0.1-0.3,0.1-0.4,0.2c-0.1,0.1-0.3,0.2-0.5,0.1c0,0,0,0,0,0
		c-0.2-0.1-0.1-0.2-0.1-0.4c0-0.2,0.1-0.3,0.2-0.4c0.1-0.3,0.3-0.7,0.4-1c0.1-0.2,0.2-0.3,0.4-0.4c0,0,0.1-0.1,0.2-0.1
		c0.2,0,0.3,0,0.3,0c0.1,0.1,0.2,0.2,0.4,0.2c0.4,0.1,0.4-0.1,0.5-0.3c0.1-0.4,0-0.5,0.4-0.7c0.1,0,0.1,0,0.2-0.1
		c0.1,0,0.1-0.1,0.2-0.1c0.2,0,0.3-0.1,0.4,0.1c0.1,0.3-0.2,0.6-0.2,0.8c0.1,0.4,0.8,0.7,1.2,1.1c0.2,0.1,0.3,0.3,0.3,0.4
		C64.7,15,64.3,15.5,63.9,15.5z"/>
	<path class="st1" d="M48.2,1.7c-0.1,0.1-0.3,0.5-0.6,0.8c0,0-0.1,0-0.2,0.1c-0.1,0.1-0.3,0.2-0.4,0.3C46.8,3,46.4,3,46.3,3.1
		c-0.2,0.3,0,0.7-0.2,0.8C46,4,46,4,45.9,4.1c-0.3,0.2-0.3,0.2-0.3,0.2c0,0.1,0,0.1,0,0.2c0,0.1,0,0.2,0.2,0.4
		c0.1,0,0.3,0.1,0.6,0.1c0.4,0,0.9-0.1,1,0.2c0,0.3-0.2,0.4-0.5,0.6c-0.1,0.1-0.4,0.2-0.5,0.3C46.2,6,46.1,6,46,6
		c-0.1,0-0.1-0.1-0.2-0.2c-0.2-0.2-0.9-0.2-1-0.4c0-0.1,0.2-0.2,0.3-0.3c0,0,0.1,0,0.1-0.1C45.3,5,45.4,5,45.6,4.9
		c0-0.2-0.5-0.4-0.5-0.4c-0.1,0.1-0.4,0-0.5,0.1c-0.2,0-0.3,0.1-0.5,0.1c-0.5,0-0.9-0.1-1.3,0.2c-0.1,0.1-0.2,0.1-0.4,0.2
		c-0.2,0.1-0.4,0.3-0.6,0.4c-0.5,0.2-1.1,0.1-1.6,0.3c-0.6,0.3-1.1,1-1.5,1.6c0,0-0.1,0.1-0.1,0.1c-0.1,0.2-0.2,0.3-0.4,0.4
		C38.1,8,37.9,8.1,37.6,8c-0.3-0.1-0.5-0.3-0.7-0.6c-0.3-0.4-0.3-0.6-0.3-1.2c0-0.3-0.1-0.7,0-0.9c0-0.1,0.1-0.2,0.2-0.3
		c0.2-0.2,0.6-0.3,0.8-0.6c0.1-0.1,0.2-0.2,0.2-0.4c0-0.1-0.2-0.2-0.2-0.3c-0.1-0.1-0.1-0.3-0.2-0.3c0,0-0.1,0-0.1-0.1
		c0,0,0-0.1,0-0.1c0,0-0.1,0-0.1-0.1c0,0,0-0.1,0-0.1c0,0-0.1,0-0.1-0.1c0-0.1-0.1-0.2-0.2-0.3c-0.1-0.1-0.5-0.2-0.6-0.3
		c-0.2,0-0.7,0-1.1,0c-0.2,0-0.9,0.1-0.8-0.3c0.1-0.2,0.2-0.1,0.4-0.2c0.4-0.1,1.2-0.2,1.5-0.2c0.7-0.1,1.2-0.3,1.8-0.4
		c0.9-0.1,1.9,0,2.8,0c0.6,0,1.2-0.1,1.8-0.2c1,0,1.9,0,2.9-0.1C46,1,46.6,0.9,47,1c0.2,0,0.4,0.1,0.7,0.1c0.4,0,0.9-0.1,0.9,0.3
		C48.7,1.8,48.4,1.6,48.2,1.7z"/>
	<path class="st1" d="M49.5,10.3c0,0,0.2,0.2,0.1,0.2c-0.1,0.1-0.7,0.1-1,0.2c-0.9,0.3-1.1,0.1-1.1,0c0.1-0.2,0.7-0.3,0.7-0.3
		c0,0,0.1-0.2,0-0.3c-0.1,0-0.2,0-0.2,0c0,0-0.3-0.1-0.3-0.1c0-0.1,0.3-0.2,0.3-0.3c0-0.3,0-0.3,0.2-0.4c0.1,0,0.3,0,0.3-0.3
		c-0.1-0.6-0.3-0.4-0.5-0.5c-0.3,0-0.5,0.4-0.5,0.4c0,0.1-0.3,0.2-0.3,0.4c-0.1,0.3,0,0.6-0.4,0.7c0,0-0.2,0.1-0.2,0.1
		c-0.2,0.1-0.6,0.2-0.7,0.1c-0.2-0.3,0.2-0.4,0.2-0.5c0-0.2-0.1-0.4-0.1-0.5c0.1-0.2,0.3-0.2,0.7-0.5c0.1-0.1,0.2,0,0.3,0
		c0.5,0,0.7-0.1,0.8-0.4c0,0,0-0.1,0-0.1c-0.1-0.4,0-0.5,0.1-0.7c0-0.1,0.1-0.2,0.2-0.2c0.1,0,0.2,0,0.2,0.1c0,0.1,0,0.2,0,0.2
		c0,0,0.2,0,0.3,0.1c0.1,0,0,0.2,0,0.3c0,0.1-0.2,0.3-0.1,0.3c0.1,0.1,0.2,0.1,0.3,0.1c0.2,0.1,0.3,0.2,0.4,0.4
		c0,0.1,0.1,0.2,0.1,0.2c0.1,0.1,0.2,0.6,0.2,0.8c0.1,0.2,0.4-0.1,0.5,0.2C49.9,9.9,49.6,10.1,49.5,10.3z"/>
</g>
<path class="st1" d="M24.8,28.6c-0.2,0.1-0.8,0.3-1.1,0.3c-0.1,0-0.5,0-0.6-0.1c-0.1,0-0.3,0.1-0.5,0.1c-0.3,0-0.6-0.3-0.6-0.3
	c0-0.1,0.7-0.1,1-0.2c0.1-0.1-0.1-0.2-0.1-0.2c0,0-0.5-0.3-0.7-0.3c0,0,0,0,0,0c-0.3,0.1-0.8-0.1-1-0.1c-0.2,0-0.5,0-0.6-0.1
	c0,0,0,0-0.1-0.1c-0.1,0,0-0.2-0.1-0.3c-0.1-0.1-0.2-0.3-0.4-0.4c-0.3-0.1-0.6-0.3-0.8-0.3c-0.2-0.1-0.5,0.1-0.7,0.1
	c-0.1,0.1-0.1,0.2-0.3,0.2c-0.1,0-0.2-0.1-0.2-0.1c-0.1,0-0.1-0.3-0.1-0.4c0-0.1,0.6-0.2,0.6-0.3c0-0.1,0.1-0.1,0.2-0.1
	c0,0,1,0,1.1,0c0,0,0.1,0,0.4,0.1c0,0,0.1,0,0.2,0c0.1,0,0.2,0,0.2,0c0.2,0.1,0.7,0.5,1.1,0.7c0,0,0.1,0,0.1,0c0,0,0.1,0,0.1,0
	c0,0,0.1,0.1,0.1,0.1c0.1,0,0.4,0.1,0.5,0.2c0,0,0,0,0,0c0,0,0,0,0,0c0,0,0.6,0.3,0.7,0.4c0.1,0,0.3-0.1,0.4-0.1
	c0.1,0,1,0.3,1.3,0.6C24.7,28.4,24.9,28.5,24.8,28.6z"/>
<g>
	<path class="st0" d="M62.4,21.1c0,0-0.1-0.1-0.2-0.4c0,0-0.1,0-0.1,0.1c-0.4,0.2-0.6,0.4-1.2,0.4c-0.3,0-0.6-0.1-0.9-0.2
		c-0.4-0.1-0.7-0.1-1-0.3c-0.1,0-0.1,0-0.2-0.1c-0.3-0.1-0.7-0.5-1.1-0.4c-0.2,0-0.4,0.2-0.5,0.3c-0.1,0.2,0,0.8-0.4,0.9
		c-0.2,0.1-0.6-0.1-0.8-0.2c-0.3-0.1-0.2-0.1-0.5-0.3c-0.1-0.1-0.2-0.1-0.3-0.2c-0.2-0.2-0.4-0.4-0.6-0.5c-0.3-0.1-0.6-0.1-0.8-0.3
		c-0.2-0.1-0.3-0.1-0.4-0.3c0-0.1,0-0.1-0.1-0.1c-0.1-0.2,0-0.8-0.1-1.1C53.3,18.3,53.1,18,53,18c-0.1,0-0.6,0.2-0.9,0.2
		c-0.5,0.1-1.1,0-1.6,0c-0.3,0-0.8,0.2-1.1,0.3c-0.3,0.1-0.6,0.4-0.9,0.5c-0.3,0.1-1.2,0.1-1.4-0.1c0,0,0-0.1,0-0.1l-0.3,0
		c0,0,0,0,0,0.1c0,0.1,0,0.1,0,0.2c-0.1,0.2-0.3,0.4-0.5,0.6c-0.3,0.3-0.6,0.5-0.7,0.7c0,0-0.1,0-0.1,0.1c-0.1,0.1-0.1,0.3-0.1,0.4
		c0,0-0.1,0.1-0.1,0.1c-0.1,0.2,0,0.5-0.1,0.7c0,0.1-0.2,0.3-0.4,0.4c-0.1,0.1-0.4,0.2-0.5,0.3c-0.1,0.1-0.3,0.4-0.4,0.5
		c-0.1,0-0.1,0.1-0.1,0.1c-0.3,0.3-0.5,0.7-0.6,1.1c0,0,0,0.1-0.1,0.2c-0.1,0.2-0.2,0.3-0.3,0.4c-0.1,0.2-0.1,0.4-0.2,0.6
		c-0.2,0.4-0.5,0.8-0.5,1.1c0,0.2,0.1,0.4,0.2,0.6c0.2,0.7,0.2,1.5-0.1,2.1c-0.1,0.2-0.2,0.4-0.3,0.6c0,0.3,0.1,0.6,0.2,0.8
		c0,0.2,0,0.5,0.1,0.7c0.1,0.3,0.6,0.7,0.8,1.1c0.1,0.2,0.3,0.5,0.4,0.7c0.1,0.3,0.2,0.6,0.3,0.9c0.1,0.1,0.3,0.3,0.4,0.4
		c0.1,0.1,0.3,0.3,0.4,0.4c0.4,0.3,0.9,0.6,1.2,0.6c0.5,0,1-0.4,1.4-0.4c0.3,0,0.6,0.2,0.9,0.2c0.2,0,0.4-0.2,0.5-0.2
		c0.2-0.1,0.4-0.2,0.5-0.2c0.5-0.2,1.2-0.5,1.7-0.2c0.4,0.2,0.4,0.8,0.8,0.9c0.1,0,0.5-0.1,0.7,0c0.1,0,0.2,0.2,0.3,0.3
		c0.2,0.2,0.3,0.4,0.4,0.7c0.1,0.7-0.3,1.4-0.2,2.1c0,0.2,0.1,0.5,0.2,0.6c0.2,0.4,0.6,0.7,0.8,1.2c0.1,0.2,0,0.3,0.1,0.6
		c0,0.1,0.1,0.2,0.2,0.3c0.1,0.3,0.3,0.8,0.4,1c0,0.3,0,0.7,0,1c0,0.4,0.2,0.7,0.2,0.8c0,0.1-0.1,0.3-0.2,0.4
		c-0.1,0.1-0.1,0.3-0.2,0.4c-0.1,0.1-0.2,0.2-0.2,0.4c0,0.1,0,0.2-0.1,0.3C54,45.8,54,46,53.9,46.3c0,0.2-0.1,0.4-0.1,0.6
		c0,0.4,0.2,0.7,0.3,0.9c0.3,0.7,0.6,1.6,0.8,2.4c0.1,0.4,0.2,0.7,0.2,1c0,0.2,0,0.4,0.1,0.7c0,0.2,0,0.5,0.1,0.7
		c0,0.1,0.1,0.1,0.2,0.2c0,0.1,0.1,0.3,0.1,0.3c0.1,0.1,0.1,0.1,0.2,0.2c0,0,0,0.1,0,0.1c0,0,0.1,0,0.1,0c0,0,0,0.1,0.1,0.2
		c0.1,0.2,0.2,0.4,0.3,0.6c0.1,0.2,0.2,0.5,0.3,0.7c0,0.3,0,0.8,0.1,1c0,0,0.3,0.3,0.4,0.3c0.4,0.1,0.7-0.2,1.4-0.2
		c0.2,0,0.3,0.1,0.4,0.1c0.2,0,0.5,0,0.6,0c0.2,0,0.3-0.2,0.5-0.3c0.4-0.3,0.6-0.5,0.8-0.8c0.1-0.1,0.3-0.2,0.3-0.3
		c0,0,0-0.1,0.1-0.2c0.1-0.1,0.3-0.3,0.4-0.4c0.1-0.2,0.2-0.3,0.3-0.5c0.2-0.4,0.6-0.8,0.6-1.1c0.1-0.3-0.1-0.6,0-0.8
		c0,0,0.2-0.2,0.2-0.2c0.2-0.2,0.6-0.4,0.8-0.7c0.1-0.2,0.2-0.7,0.2-0.8c0-0.4-0.3-0.6-0.2-1.2c0-0.1,0.1-0.3,0.2-0.4
		c0.1-0.2,0.3-0.4,0.4-0.5c0-0.1,0.1-0.2,0.1-0.2c0.2-0.2,0.3-0.3,0.4-0.4c0,0,0.1-0.1,0.1-0.1c0.2-0.2,0.4-0.2,0.6-0.4
		c0.2-0.1,0.3-0.3,0.4-0.4c0,0,0.1,0,0.1-0.1c0.2-0.2,0.2-0.4,0.3-0.7c0.1-0.5,0-0.8-0.1-1.2c0-0.3,0-0.6-0.1-0.8
		c0-0.2-0.2-0.4-0.3-0.6c0-0.1,0-0.2-0.1-0.3c-0.1-0.5-0.3-1.2-0.2-1.9c0-0.2,0.2-0.5,0.2-0.6c0.1-0.2,0.1-0.3,0.3-0.4
		c0.5-0.7,0.8-1.2,1.4-1.9c0.1-0.1,0.1-0.2,0.2-0.3c0.2-0.3,0.5-0.5,0.7-0.7c0.3-0.4,0.9-0.7,1.1-1.1c0.1-0.2,0.1-0.5,0.2-0.6
		c0.1-0.2,0.2-0.4,0.3-0.6c0-0.1,0.1-0.1,0.1-0.2c0.2-0.5,0.3-0.7,0.5-1.3c0.1-0.2,0.2-0.6,0.2-0.8c-0.1-0.7-0.9-0.1-1.2,0
		c-0.2,0.1-0.4,0.1-0.7,0.1c-0.3,0.1-0.5,0.2-0.7,0.1c-0.1,0-0.3-0.2-0.4-0.2c-0.3-0.3-0.3-0.8-0.5-1.3c-0.1-0.2-0.5-0.6-0.7-0.7
		c-0.2-0.2-0.3-0.2-0.5-0.4c-0.2-0.3-0.3-0.7-0.5-1.1c-0.2-0.4-0.5-0.7-0.6-1c-0.1-0.3-0.1-0.7-0.2-1c-0.1-0.2-0.2-0.4-0.3-0.6
		c-0.2-0.5-0.7-1.4-0.9-1.9c-0.2-0.4-0.3-0.9-0.5-1.1c0-0.1-0.1-0.1-0.1-0.2c0-0.1-0.2-0.3-0.1-0.4c0-0.1,0.1,0,0.2-0.1
		c0,0,0.1-0.1,0.1-0.2c0,0,0,0,0,0c0,0,0-0.1,0-0.1C62.6,21.7,62.5,21.2,62.4,21.1z"/>
	<path class="st1" d="M69.9,44.9c0.3-0.1,0.4,0,0.5,0.3c0.1,0.3,0.1,0.5,0.1,1c-0.1,0.5-0.3,1-0.5,1.5c0,0.1,0,0.1-0.1,0.1
		c0,0-0.1,0.2-0.1,0.3c-0.1,0.4-0.3,1-0.4,1.5c0,0.2-0.1,0.5-0.1,0.7c-0.1,0.6-0.1,0.7-0.6,1c0,0,0,0.1-0.1,0.1
		c-0.2,0.1-0.6,0.1-0.8-0.1c-0.3-0.2-0.5-0.9-0.4-1.5c0.1-0.5,0.4-0.8,0.5-1.3c0-0.3-0.1-0.7-0.1-1.1c0-0.2,0.1-0.4,0.2-0.5
		c0,0,0.1,0,0.1-0.1c0.1-0.2,0.2-0.3,0.4-0.4c0.1-0.1,0.4-0.2,0.6-0.3c0,0,0.1,0,0.2-0.1c0.3-0.2,0.4-0.6,0.6-1
		C69.8,44.9,69.8,44.9,69.9,44.9z"/>
</g>
<g>
	<path class="st0" d="M62.5,22C62.5,22,62.5,22,62.5,22c0.1,0,0.2,0.2,0.3,0.3c0,0,0,0,0.1,0.1c0.1,0.1,0.1,0.2,0.2,0.4
		c0.2,0.4,0.3,0.7,0.5,1c0.1,0.2,0.2,0.3,0.3,0.4c0.1,0.1,0.2,0.2,0.2,0.3c0,0.1,0.2,0.3,0.2,0.3c0,0.1,0.1,0.2,0.1,0.3
		c0.1,0.1,0.2,0.3,0.3,0.4c0.1,0.1,0,0.3,0.1,0.4c0,0.2,0.2,0.4,0.2,0.5c0.1,0.3,0.3,0.6,0.5,0.7c0.2,0.2,0.4,0.6,0.6,0.9
		c0.1,0.1,0.1,0.2,0.1,0.3c0.1,0.1,0.1,0.2,0.2,0.3c0,0,0,0,0,0.1c0.1,0.4,0.1,0.8,0.2,1.2c0.1,0.4,0.2,0.6,0.5,0.7
		c0.1,0,0.2,0,0.4-0.1c0.2-0.1,0.4-0.2,0.6-0.3c0.3-0.1,0.4-0.2,0.6-0.3c0.4-0.2,0.8-0.3,1-0.5c0,0,0.1,0,0.2-0.1
		c0.2-0.2,0.4-0.6,0.7-0.8c0.2-0.2,0.6-0.3,0.8-0.4c0.2-0.1,0.6-0.4,0.7-0.7c0.2-0.3,0.3-0.7,0.5-1c0.3-0.4,0.6-0.7,0.6-1
		c0,0-0.1-0.1-0.2-0.2c-0.2-0.3-0.2-0.2-0.4-0.4c-0.1-0.1-0.1-0.2-0.2-0.3c-0.1-0.1-0.2-0.1-0.3-0.2c-0.2-0.1-0.2-0.2-0.4-0.3
		c-0.1-0.1-0.1-0.7-0.1-0.7c0,0,0,0,0,0c-0.1,0-0.2,0.3-0.3,0.3c-0.1,0.1-0.2,0.2-0.3,0.4c-0.2,0.2-0.4,0.3-0.6,0.3
		c-0.1,0-0.1,0-0.2,0c-0.3,0-0.5-0.7-0.6-0.9c0,0-0.1,0-0.1,0c-0.1,0,0,0.3-0.1,0.3c0,0-0.1,0-0.2-0.1c-0.1-0.1-0.2-0.5-0.2-0.6
		c-0.1-0.1-0.1-0.2-0.2-0.4c-0.1-0.1-0.1-0.2-0.2-0.3c0-0.1-0.3-0.8-0.2-1c0,0,0-0.1,0-0.1c0.1-0.1,0.3-0.2,0.4-0.2
		c0.4,0,0.6,0.5,0.7,0.8c0.1,0.1,0.1,0.3,0.2,0.4c0,0,0.1,0.2,0.1,0.2c0.1,0.1,0.1,0.1,0.2,0.2c0.1,0.2,0.8,0.4,1.1,0.4
		c0.1,0,0.1,0,0.1,0c0.1-0.1,0.1-0.2,0.2-0.2c0.1,0,0.1,0,0.3,0.1c0.2,0.1,0.4,0.3,0.6,0.5c0,0,0,0.1,0.1,0.2c0,0,0.1,0,0.2,0
		c0.4,0.2,1,0.3,1.6,0.2c0.3,0,0.6,0,0.8-0.1c0.1,0,0.1,0,0.2,0c0,0,0.1,0,0.1,0c0.1,0,0.2,0,0.3,0c0.4,0.1,0.9,0.8,1.2,1.1
		c0.1,0.1,0.2,0.2,0.2,0.2c0,0,0,0,0.1,0c0.1,0,0.2,0,0.3-0.1c0,0,0,0,0,0c0.1,0.4-0.4,0.3-0.3,0.5c0.1,0.3,0.3,0.4,0.4,0.4
		c0.1,0.1,0.1,0.1,0.2,0.1c0,0,0.1,0,0.1,0c0,0,0,0,0,0c0,0,0,0,0,0c0.3,0,0.4-0.6,0.7-0.7c0,0,0.1,0,0.1,0c0.1,0.1,0.1,0.3,0.1,0.6
		c0,0.3-0.1,0.7-0.1,0.9c0.1,0.5,0.3,1,0.4,1.4c0.1,0.3,0.1,0.6,0.2,0.8c0,0.1,0.1,0.2,0.1,0.3c0.1,0.3,0.2,0.5,0.4,0.8
		c0.1,0.2,0.2,0.5,0.3,0.7c0,0.1,0.1,0.3,0.2,0.4c0.1,0.2,0.1,0.4,0.2,0.6c0.2,0.6,0.4,1,0.8,0.7c0.1-0.1,0.2-0.1,0.3-0.2
		c0,0,0,0,0,0l0.4,0.2c0,0.7,0,1.2,0.3,1.3c0.1,0.1,0.2,0.2,0.3,0.2c0.1,0,0.3,0,0.4-0.6c0-0.3-0.1-0.7-0.3-0.9c0,0,0,0,0,0
		c0-0.1,0-0.1-0.1-0.1c0,0,0-0.1-0.1-0.1c0-0.1,0-0.2-0.1-0.2c0,0,0,0,0,0c0,0,0,0,0,0c0-0.1-0.2,0.1-0.2,0.1c0,0,0,0-0.1,0
		c-0.2,0-0.2-0.1-0.3-0.2c0.2-0.4,0.3-1,0.3-1.5c0-0.3-0.2-1-0.1-1.3c0.1-0.3,0.6-0.4,0.8-0.7c0.4-0.5,0.8-1.4,1.3-2
		c0.1-0.1,0.2-0.1,0.2-0.2c0.1-0.1,0.1-0.2,0.2-0.3c0.1-0.2,0.2-0.4,0.4-0.4c0.1-0.1,0.4-0.1,0.6-0.2c0.2-0.1,0.4-0.2,0.6-0.2
		c0,0,0,0,0.1,0c0.3,0.1,0.4,0.4,0.5,0.6c0,0.1,0.1,0.2,0.1,0.3c0,0,0.1,0,0.2,0.1c0.1,0.1,0.1,0.2,0.2,0.3c0,0,0.1,0,0.2,0.1
		c0.2,0.2,0.3,0.3,0.4,0.5c0.1,0.2,0.1,0.6,0.2,0.8c0,0.2,0.1,0.3,0.2,0.4c0.1,0.1,0.1,0.3,0.2,0.3c0,0,0,0,0,0
		c0.1,0,0.4-0.1,0.4-0.1c0.5-0.5,0.5,0.4,0.7,0.9c0.1,0.3,0.4,0.8,0.4,1.1c0,0.4,0,0.8-0.1,1.1c0,0.2,0,0.5,0,0.8c0,0.1,0,0.2,0,0.3
		c0,0,0,0.1,0.1,0.1c0.1,0.1,0.2,0.2,0.2,0.3c0.1,0.1,0,0.1,0.1,0.1c0.1,0,0.1,0.2,0.2,0.3c0,0,0,0,0,0c0.1,0.2,0.3,0.3,0.4,0.5
		c0.2,0.4,0.2,0.6,0.2,0.7c0.1,0.3,0.1,0.4,0.2,0.6c0,0.1,0.1,0.3,0.1,0.4c0,0,0.1,0,0.1,0.1c0,0,0.1,0.1,0.1,0.1c0,0,0,0,0,0
		c0,0,0.1,0.1,0.1,0.1c-0.1,0.2-0.1,0.5-0.2,0.5c0,0-0.1-0.1-0.1-0.1c-0.2-0.2-0.2-0.6-0.4-0.8c-0.1-0.1-0.3-0.2-0.4-0.3
		c0-0.1,0-0.1-0.1-0.2c0,0-0.1,0-0.1-0.1c-0.3-0.2-0.8-0.6-1-0.6c-0.1,0-0.4-0.1-0.4-0.1c0,0,0,0,0,0c-0.1,0.1-0.1,0.1,0,0.2
		c0,0.2,0.1,0.5,0.3,0.8c0.2,0.3,0.6,0.5,0.7,0.7c0.4,0.6,0.8,1.1,1.1,1.8c0.2,0.4,0.4,0.8,0.6,1.2c0.3,0.5,0.7,1.2,1.2,1.2
		c0.1,0,0.5-0.3,0.5-0.7c0-0.6-0.7-1.2-1-1.9c-0.1-0.1-0.1-0.3-0.2-0.4c-0.1-0.1-0.3-0.4,0.2-0.8c0.1,0,0.1,0,0.1,0
		c0.1,0,0-0.3,0-0.5c0-0.1-0.1-0.3-0.2-0.5c0-0.1-0.1-0.3-0.2-0.4c-0.1-0.1-0.2-0.5-0.2-0.6c-0.1-0.1-0.3-0.4-0.7-0.9
		c-0.1-0.2-0.3-0.4-0.4-0.6c-0.1-0.2-0.2-0.5-0.2-0.8c-0.1-0.3,0-0.6,0-1c0-0.4-0.1-0.7-0.1-0.8c0-0.1,0.1-0.1,0.1-0.1
		c0.1-0.1,0.1-0.2,0.2-0.2c0.1,0,0.2,0.1,0.3,0.2c0.1,0.1,0.3,0.2,0.4,0.3c0.3,0.3,0.4,0.8,0.7,1c0,0,0,0,0.1,0c0,0,0.1,0,0.2,0
		c0,0,0,0,0,0c0,0,0,0,0,0c0,0,0,0,0,0c0.1,0,0.2-0.1,0.2-0.1c0,0,0,0,0,0c0.2,0.2,0,0.5,0,0.7c0,0.1,0.1,0.1,0.1,0.1
		c0,0,0.1,0,0.1,0c0.3,0.1,0.6-0.6,0.9-0.8c0.3-0.3,0.5-0.4,0.6-0.7c0.2-0.7-0.2-1.7-0.4-2.1c-0.3-0.5-0.8-0.9-1.1-1.2
		c-0.1-0.2-0.3-0.4-0.3-0.7c0-0.5,0.5-1.2,1-1.2c0.1,0,0.1,0,0.2,0c0.1,0,0.1,0.1,0.2,0.1c0.1,0.6,0.2,0.8,0.3,0.8
		c0.2,0.1,0.4-0.7,0.5-0.8c0,0,0.1-0.1,0.1-0.1c0,0,0,0,0,0c0.2-0.1,0.3-0.2,0.4-0.3c0.3-0.1,0.6,0,0.8-0.1c0.1,0,0.2-0.1,0.3-0.2
		c0.2-0.1,0.4-0.1,0.4-0.2c0.2-0.2,0.4-0.3,0.5-0.6c0.2-0.4,0.4-0.6,0.5-1c0.1-0.2,0.1-0.6,0.2-0.9c0.1-0.3,0.3-1.1,0.1-1.1
		c-0.4,0-0.7-0.3-0.5-0.4c0.2-0.1,0.3-0.2,0.2-0.3c0,0-0.2-0.3-0.2-0.3c-0.2-0.3-0.4-0.5-0.6-0.7c-0.2-0.3-0.7-1-0.7-1.3
		c0-0.2,0.9-0.6,0.7-0.9c-0.2-0.3-0.9-0.1-1.2-0.2c-0.2-0.1-0.7-0.4-0.7-0.7c0-0.1,0.1-0.2,0.2-0.3c0.1-0.2,0.4-0.5,0.7-0.6
		c0.1,0,0.1,0,0.1,0c0.1,0,0.3,0.1,0.3,0.2c0,0,0,0.1,0,0.2c0,0.1,0.1,0.4,0.1,0.4c0,0,0,0,0.1,0c0.1,0,0.4-0.2,0.5-0.2
		c0.4-0.1,0.5,0,0.8,0.3c0.2,0.2,0,0.6,0.2,0.6c0.2,0,0.4,0,0.5,0.1c0.1,0.1,0.2,0.2,0.3,0.3c0.3,0.4,0.4,0.7,0.4,1
		c0,0.1,0.1,0.4,0.3,0.5c0,0,0,0,0.1,0c0.2,0,0.3-0.4,0.5-0.5c0,0,0,0,0.1,0c0.2,0,0.2-0.1,0.2-0.3c0,0,0,0.1,0,0c0-0.1,0,0,0,0
		c0-0.2-0.2-0.5-0.3-0.7c0,0,0-0.1-0.1-0.1c-0.3-0.4-1.1-0.7-1.2-1.2c0-0.3,0.4-0.5,0.4-0.8c0-0.2-0.1-0.5,0-0.7
		c0-0.1,0.5-0.5,0.5-0.5l0,0l0,0l0,0l0,0l0,0l0,0l-0.2-1.4l-0.5-1.6c0,0,0,0-0.1,0l0,0c-0.6,0.1-1.5,0.5-1.9,0.2
		c-0.4-0.3-0.7-1-1-1.4c0,0,0,0-0.1-0.1c-0.1-0.1-0.2-0.2-0.3-0.3c0,0,0,0,0,0c-0.6-0.3-1.3,0.1-1.4,0.1c-0.4,0.1-1-0.2-1.3-0.3
		l-1.1,0.4l-0.8,0.1c0,0.1-0.1,0.2-0.1,0.4c-0.3,0.4-2.6,0.3-2.6,0.3h0l0,0c0,0-1.1,0.4-1.8-0.4c-0.1-0.1-0.2-0.2-0.3-0.4
		c0,0,0,0,0,0c0,0,0,0,0,0c-0.2,0.1-0.5,0.3-0.7,0.4c-0.3,0.1-0.5,0.2-0.8,0.5c-0.3,0.3-0.2-0.2-0.5-0.3c-0.2-0.1-0.4-0.1-0.7-0.1
		c-0.1,0-0.2-0.1-0.3-0.2c0,0-0.1,0-0.1,0.1c-0.2,0.1-0.2,0-0.3-0.2l0,0c0-0.1-0.1-0.1-0.2-0.2c0,0,0,0-0.1,0c0,0,0,0,0,0
		c-0.4,0-0.9,0.1-1.2-0.1c0,0,0,0,0,0c0,0,0,0,0,0c0,0,0,0,0,0c-0.1,0-0.1,0.1-0.2,0.1c-0.2,0.2-0.2,0.4-0.2,0.6
		c0,0.1,0,0.2-0.1,0.3c-0.1,0.3-0.5,0.6-0.9,0.6c-0.3,0-2.1-0.5-2.9-0.8c-0.2-0.1-0.4-0.1-0.4-0.1c-0.2-0.1-0.7-0.3-1.1-0.6
		c-0.3-0.2-0.5-0.4-0.7-0.7c-0.1-0.1-0.1-0.2-0.2-0.3c-0.4-0.5-0.8-0.5-0.9-0.5c0,0,0,0,0,0c0,0.1,0,0.2,0,0.2s0.6,1.2,0.4,1.3
		C73.5,9.8,73.1,10,73,10c-0.2,0-0.9,0.1-0.9,0.1l-1,0.2c0,0-0.7-0.3-0.9-0.2c-0.1,0.1-0.9-0.4-1-0.5c0,0,0,0,0,0l0,0.1
		c0,0-0.1,0.5-0.2,0.5c-0.1,0.1-0.5-0.1-0.6-0.2c0,0-0.3-0.1-0.7-0.1c0,0,0,0,0,0c0,0,0,0,0,0c-0.4,0.2-0.9,1-0.9,1.4
		c0,0.3,0.8,0.8,0.8,0.8c0,0.1,0.1,0.3,0.1,0.5c0,0,0,0,0,0c0,0,0,0,0,0c0.1-0.1,0.3-0.1,0.4-0.1c0.1,0,0.2-0.1,0.3-0.1
		c0.2,0,0.5,0.3,0.5,0.4c0,0.1,0,0.1,0,0.1c-0.1,0.2-0.4,0.3-0.5,0.4c-0.1,0.1-0.1,0.2-0.2,0.3c-0.1,0.3,0.1,0.6,0.3,0.8
		c0,0,0.1,0,0.2,0.1c0.1,0.1,0.1,0.2,0.2,0.2c0.1,0.1,0.4,0.1,0.5,0.2c0,0,0.3,0.3,0.3,0.3c0,0.1,0,0.2,0,0.2c0,0.1-0.1,0.1-0.1,0.2
		c0,0,0,0,0,0c0,0,0,0,0,0.1c0,0,0,0,0,0c0,0,0,0.1-0.1,0.1c0,0,0,0.1,0,0.1c0,0.2,0.1,0.2,0.2,0.4c0,0.1,0.2,0.2,0.2,0.3
		c0.1,0.2,0.1,0.7,0,0.9c0,0-0.2,0.3-0.3,0.3c-0.2,0.1-0.6-0.1-0.7-0.2c-0.4-0.2-0.9-0.4-1-1c0,0,0-0.1,0-0.1
		c-0.1-0.1-0.2-0.2-0.3-0.3c-0.2-0.1-0.5,0.5-0.8,0.4c-0.3-0.1-0.4-0.4-0.5-0.4c-0.1,0-0.3,0-0.3,0.2c0.1,0.6,0.1,0.6-0.1,1
		c-0.2,0.4-1,0.4-1.3,0.4C64,18,63.1,18.3,63,18.4l0,0l0,0.1c0,0.5-0.1,0.9-0.2,1.3c0,0.2-0.1,0.5-0.2,0.6c-0.1,0.2-0.3,0.2-0.5,0.3
		c0.1,0.2,0.2,0.3,0.2,0.4c0.1,0.1,0.1,0.5,0.1,0.7C62.5,21.9,62.5,21.9,62.5,22"/>
	<path class="st1" d="M104.2,18c0,0.3-0.1,0.3-0.2,0.4c-0.1,0.1-0.5,0.3-0.8,0.3c-0.6,0.1-0.3,0.7-0.5,0.6c-0.3-0.2-0.3-0.5-0.7-0.5
		c-0.2,0-1.1,0.3-1.3,0c0,0-0.1-0.1,0-0.1c0.2-0.1,0.5-0.2,0.6-0.3c0.2-0.1,0.4-0.2,0.7-0.3c0.2-0.1,0.3-0.1,0.4-0.2
		c0,0,0-0.1,0.1-0.1c0.1-0.1,0.2-0.2,0.4-0.3c0.2-0.2,0.3-0.5,0.4-0.6c0-0.2,0-0.4-0.1-0.7c0-0.1-0.1-0.1-0.1-0.2
		c-0.2-0.3-0.5-0.8-0.5-0.8c-0.1,0-0.1,0-0.1-0.1c-0.1-0.1-0.1-0.8,0-1c0-0.3,0.1-0.4,0.3-0.5c0.1-0.1,0.2,0,0.4,0.1
		c0,0,0.1,0.1,0.1,0.1c0,0,0.1,0,0.2,0c0.1,0,0.1,0.1,0.2,0.2c0.2,0.1,0.2,0,0.3,0.1c0,0,0.1,0.3,0.1,0.4c0,0-0.2,0.4-0.3,0.4
		c-0.4,0-0.2-0.2-0.5-0.2c0,0-0.4,0,0.5,1c0,0,0,0,0,0c0.1,0.1,0.2,0.2,0.3,0.4c0.1,0.3,0.1,0.6,0.1,1.1
		C103.9,17.5,104.2,17.9,104.2,18z"/>
	<path class="st1" d="M98,24.3c0.2-0.1,0.4-0.2,0.4-0.2c0.1,0.5,0,1-0.1,1.3c0,0.1,0,0.2-0.3-0.1C97.7,25.1,97.7,24.4,98,24.3z"/>
	<path class="st1" d="M101.1,34.3c-0.1,0.1-0.2,0.1-0.4,0.1c0,0-0.2-0.3-0.2-0.3c0,0-0.1-0.3-0.2-0.4c-0.1-0.1-0.7-0.1-0.7-0.4
		c0-0.4,0.4-0.3,0.8-0.5c0.2-0.1,0.2-0.4,0.2-0.6c0-0.2,0-0.5-0.1-0.8c-0.3-0.2-0.6-0.3-0.9-0.4c-0.3-0.1-0.3,0-0.4,0.1
		c0,0-0.1,0-0.1,0.1c0,0,0,0,0,0c0,0,0,0,0,0c-0.3,0.3-0.7,1.4-0.9,1.6c-0.1,0.1-0.3,0.3-0.5,0.1c-0.1-0.1-0.5-0.4,0-0.7
		c0,0,0.1-0.1,0.2-0.1c0,0,0.1-0.2,0.3-0.5c0.1-0.1,0.2-0.5,0.3-0.8c0.1-0.3,0.1-0.4,0.2-0.6c0-0.1-0.1-0.3-0.1-0.4
		c-0.1-0.1-0.1-0.2-0.2-0.3c0-0.1,0-0.1-0.1-0.1c-0.3-0.3,0-0.7,0.1-1.1c0.1-0.3-0.1-0.7,0.2-0.7c0,0,0.4,0.3,0.5,0.4
		c0.1,0.1,0.3,0.4,0.3,0.7c0,0.3-0.2,0.6-0.1,1c0,0.1,0.4,0.4,0.5,0.5c0.3,0.2,0.8,0.8,1.1,0.8c0,0,0,0,0,0c0.4,0.2,0.5,1.6,0.6,1.6
		c0,0,0,0.6,0.1,0.6C101.6,33.3,101.4,34.1,101.1,34.3C101,34.4,101.4,34.1,101.1,34.3C101,34.4,101.4,34.1,101.1,34.3z"/>
	<path class="st1" d="M97.5,34.1c0.2,0,0.3-0.1,0.5,0.2c0.1,0.1,0.1,0.2,0.1,0.2c0,0.1,0.1,0,0.1,0.2c0,0.3-0.2,0.4-0.2,0.5
		c-0.1,0.2-0.2,0.4-0.2,0.5c0,0.6,0.4,0.8,0.2,1.4c0,0.1-0.1,0.1-0.1,0.2c0,0,0,0.1-0.1,0.2c-0.1,0.3-0.2,0.5-0.3,0.7
		c-0.3,0.6-0.3,1.1-0.7,1.2c-0.2,0-0.4-0.1-0.7-0.2c-0.5-0.1-0.8,0-1.1-0.2c-0.3-0.2-0.4-0.8-0.5-1.3c-0.1-0.3-0.2-0.7-0.1-0.9
		c0.1-0.2,0.4-0.2,0.6-0.3c0.2-0.1,0.4-0.3,0.5-0.4c0.2-0.2,0.4-0.4,0.5-0.7c0.2-0.4,0.4-0.5,0.8-0.8C97.1,34.4,97.3,34.2,97.5,34.1
		C97.7,34.1,97.3,34.2,97.5,34.1z"/>
	<path class="st1" d="M99.7,37.2c-0.1,0-0.3,0-0.4,0C99.5,37.2,99.6,37.2,99.7,37.2z"/>
	<path class="st1" d="M100.9,37c-0.1,0.2-0.1,0.4-0.3,0.5c-0.1,0.1-0.4,0-0.5,0c-0.1,0-0.2-0.2-0.3-0.2h0c0,0,0,0,0,0c0,0,0,0,0,0
		c-0.1,0-0.2,0-0.3,0.1c-0.2,0.1-0.4,0.1-0.4,0.2C99,37.6,99,37.8,99,37.8c0,0.1,0.2,0.3,0.2,0.3c0.1,0.1,0.3,0.1,0.4-0.1
		c0,0,0.1-0.1,0.2-0.1c0.1-0.1,0.2,0,0.2,0c0,0.1,0.1,0.2,0.1,0.2c-0.3,0.3-0.4,0.4-0.4,0.5c0,0.1,0,0.2,0,0.4
		c0,0.1,0.2,0.7,0.2,0.8c0,0-0.3-0.1-0.5-0.4c0-0.1-0.1-0.4-0.2-0.4c-0.2-0.1-0.2,0-0.3,0.2c-0.1,0.2,0.3,0.7,0.2,1.1
		c-0.1,0.2-0.6,0-0.6-0.1c0,0,0-0.5,0-0.6c0,0-0.1-0.1-0.1-0.1c0-0.1-0.2-0.4-0.2-0.4c0.1-0.2,0.2-0.4,0.3-0.7
		c0.1-0.4,0.1-0.4,0.1-0.7c0-0.3,0.2-0.8,0.2-0.8c0,0,0.4-0.2,0.5-0.3l0,0c0,0,0.1-0.1,0.2-0.1c0.3,0,0.4,0.2,0.8,0.2
		c0.2,0,0.6-0.2,0.7-0.2C100.9,36.7,101,36.9,100.9,37z"/>
	<path class="st1" d="M104.1,37.9c0.2,0,0.4,0,0.5,0.1c0,0,0.1,0,0.1,0.1c0.2,0.2,0.1,1,0.4,1.1c0.2,0,0.3-0.3,0.4-0.4
		c0.2-0.1,0.5-0.4,0.8-0.3c0.2,0,0.4,0.2,0.6,0.3c0.4,0.2,0.8,0.5,1.2,0.7c0.2,0.1,0.4,0.3,0.5,0.4c0.2,0.2,0.5,0.7,0.6,0.8
		c0,0,0.3,0.2,0.5,0.1c0.4-0.1,0.6-0.7,0.8-0.5c0.2,0.2-0.1,0.8-0.2,0.9c-0.1,0.1-0.4,0.1-0.7,0.3c-0.2,0.1-0.1,0.2-0.1,0.3
		c0,0-0.1,0.1,0,0.2c0,0,0,0,0,0.1c0,0,0.1,0.1,0.1,0.1c0,0,0,0.1,0,0.1c0,0,0,0.1,0.1,0.1c0,0.1,0.8,0.7,0.7,1
		c-0.1,0.1-0.2,0-0.3,0c-0.1,0-0.4-0.2-0.6-0.3c-0.2-0.1-0.3-0.2-0.5-0.4c0,0-0.1-0.2-0.2-0.3c0-0.1-0.1-0.1-0.1-0.2
		c-0.2-0.2-0.1-0.6-0.3-0.6c-0.2,0-0.5,0.1-0.7,0.5c-0.1,0.3-0.2,0.4-0.5,0.4c-0.2,0-0.4-0.1-0.5-0.3c-0.1-0.1-0.4-0.3-0.6-0.2
		c-0.2,0.1-0.2-0.2-0.2-0.3c0-0.1,0.2-0.1,0.3-0.3c0-0.1,0-0.1-0.2-0.2c-0.1-0.1-0.1-0.1-0.2-0.2c0-0.1,0-0.1-0.1-0.2
		c-0.1-0.1-0.1-0.1-0.2-0.2c-0.1-0.1-0.2-0.2-0.4-0.3c-0.1-0.1-0.2-0.1-0.3-0.1c-0.3-0.2-0.7-0.1-0.9-0.4c0,0-0.1-0.4-0.1-0.5
		c-0.1-0.1,0-0.2,0-0.2c0-0.1,0-0.2,0-0.3c-0.1-0.3-0.7-0.4-0.7-0.6c0,0,0.5-0.3,0.5-0.3C103.8,37.8,104,37.9,104.1,37.9
		C104.3,37.9,104,37.9,104.1,37.9z"/>
	<path class="st1" d="M93.3,40.7c0.4-0.2,0.8,0.2,1.1,0.3c0.3,0.1,0.9-0.1,1.1,0c0.2,0.1,0.5,0.2,0.7,0.3c0,0,0.2,0.2,0.6,0.3
		c0.1,0,0.1,0.1,0.3,0.1c0.2,0,0.4-0.2,0.6-0.1c0.2,0,0.7,0.3,0.9,0.3c0.4,0,0.3-0.2,0.6-0.2c0.3,0,0.2,0.2,0.5,0.2
		c0,0,0.4,0.1,0.9,0.1c0.5,0,0.4,0.1,1.1,0.1c0,0,0,0.1,0,0.1c0,0-0.4,0.2-0.9,0.4c-0.3,0.1-0.6,0.4-0.8,0.4c-0.2,0,0.1-0.3,0-0.4
		c-0.1-0.2-0.4-0.2-0.4-0.2c-0.4,0.2-0.3,0.1-0.7,0.1c-0.2,0-0.3-0.1-0.5-0.1c-0.3,0-0.7,0.1-0.9,0.1c0,0-0.3-0.2-0.5-0.2
		c-0.2,0-0.6,0-0.8,0c-0.4-0.1-0.5-0.2-0.7-0.2c-0.4-0.1-0.8-0.1-1.1-0.2c-0.1,0-0.2-0.1-0.3-0.1c-0.5-0.1-0.9,0.1-1.2-0.2
		c-0.1-0.1-0.3-0.2-0.3-0.4C92.7,40.9,93.1,40.7,93.3,40.7C93.2,40.7,93.3,40.7,93.3,40.7z"/>
	<path class="st1" d="M111.8,54.3c-0.1,0.1-0.5,0.6-0.7,0.7c-0.5,0.2-0.8,0.6-0.9,0.6c-0.3,0.4-0.7,0.7-1,1.1
		c-0.1,0.1-0.9,0.7-1.2,0.6c0,0-0.2-0.2-0.2-0.2c-0.1-0.3,0.2-0.7,0.5-0.9c0.1-0.1,0.3-0.2,0.4-0.3c0.2-0.1,0.5-0.2,0.6-0.3
		c0.1-0.1,0.8-1.2,0.8-1.2c0-0.1,0.1-0.1,0.1-0.1c0.2-0.3,0.5-0.5,0.6-0.6c0,0,0-0.8,0.2-0.8c0.3-0.1,0.8,0.9,0.9,1
		C112.1,53.8,111.9,54.2,111.8,54.3z"/>
	<path class="st1" d="M108.8,51.7c0,0.1-0.1,0.3-0.2,0.4c0,0.1,0,0.3-0.1,0.4c0,0.1-0.2,0.2-0.2,0.2c-0.1,0.2-0.4,0.5-0.6,0.8
		c-0.3,0.4-0.4,0.8-0.7,1.2c-0.1,0.2-0.2,0.4-0.4,0.6c0,0-0.1,0.1-0.2,0.1c0,0.2-0.7,0.3-1,0.5c0.1-0.1-0.4,0.4-0.4,0.8
		c0,0,0.1,0.2-0.1,0.4c-0.2,0.2-0.3,0.3-0.4,0.4c-0.1,0-0.4,0.1-0.5,0.1c-0.1,0-0.2-0.2-0.1-0.4c0.1-0.3-0.1-0.7,0.1-0.7
		c0.6,0.1,0.6-0.3,0.6-0.6c-0.1,0-0.3-0.1-0.4-0.1c-0.4,0-0.6,0.1-0.9-0.1c-0.1-0.1-0.2-0.2-0.3-0.3c-0.1-0.2,0-0.5-0.1-0.8
		c0-0.2-0.1-0.3-0.2-0.5c-0.1-0.1,0-0.2-0.1-0.3c0-0.1-0.2-0.2-0.2-0.2c-0.1,0-0.3,0.3-0.6,0.2c-0.4,0-0.7-0.6-1.1-0.8
		c-0.1,0-0.4-0.1-0.5-0.1c-0.8,0-1.6,0.4-2.3,0.6c-0.1,0-0.3,0-0.4,0.1c-0.4,0.1-0.8,0.3-1.3,0.4c-0.2,0.1-0.5,0.1-0.7,0.2
		c-0.1,0-0.3,0-0.4,0.1c-0.2,0.1-0.6,0.3-1,0.3c-0.1,0-0.4-0.3-0.5-0.4c0-0.2,0.1-0.3,0.2-0.5c0.1-0.1,0.2-0.2,0.3-0.4
		c0-0.1,0-0.3,0.1-0.4c0-0.5-0.2-1-0.2-1.5c0-0.3,0.1-0.8,0.2-1.2c0-0.5-0.1-1,0.1-1.3c0-0.1,0.2-0.4,0.4-0.5
		c0.2-0.2,0.5-0.3,0.8-0.4c0.4-0.2,0.8-0.5,1.3-0.6c0.3-0.1,0.5-0.1,0.7-0.2c0.3-0.2,0.6-0.6,0.8-1c0,0,0-0.1,0.1-0.2
		c0.1-0.1,0.2-0.1,0.3-0.2c0.2-0.2,0.3-0.4,0.5-0.7c0.2-0.2,0.5-0.4,0.6-0.7c0.1-0.1,0.3-0.3,0.5-0.3c0.2,0,0.3,0.1,0.5,0.2
		c0.1,0.1,0.3,0.2,0.4,0.2c0.3,0,0.4-0.5,0.5-0.8c0-0.1,0.1-0.1,0.1-0.1c0.1-0.2,0.3-0.4,0.5-0.5c0.1-0.1,0.3-0.1,0.4-0.2
		c0.2-0.1,0.3-0.1,0.4-0.1c0.3,0,0.8,0,0.9,0.4c0.1,0.2-0.2,0.6-0.2,1c0,0.4,0.3,0.7,0.6,1c0.1,0.1,0.3,0.1,0.4,0.2
		c0.1,0.1,0.3,0.4,0.5,0.3c0.3,0,0.5-0.5,0.6-0.9c0.1-0.5,0.1-0.6,0.3-1.3c0.1-0.4,0-1,0.2-1c0,0,0.2,0.3,0.2,0.3
		c0.1,0.3,0.1,0.2,0.2,0.5c0.1,0.7,0.2,0.6,0.4,1c0.1,0.1,0.2,0.3,0.2,0.4c0.1,0.6-0.1,1,0,1.5c0,0.3,0.2,0.5,0.4,0.8
		c0.1,0.1,0.1,0.3,0.2,0.4c0.2,0.5,0.4,1,0.6,1.5c0.2,0.4,0.4,0.8,0.4,1.1C109.1,50.5,108.9,51.4,108.8,51.7
		C108.8,51.9,108.9,51.4,108.8,51.7C108.8,51.9,108.9,51.4,108.8,51.7C108.8,51.9,108.9,51.4,108.8,51.7
		C108.8,51.9,108.9,51.4,108.8,51.7C108.8,51.9,108.9,51.4,108.8,51.7z"/>
</g>
<path class="st1" d="M39,42.9c0,0.1-0.1,0.4-0.2,0.5c0,0-0.1,0.1-0.1,0.1c0,0-0.1,0-0.1,0c0,0,0,0.1-0.1,0.2
	c-0.2,0.3-0.4,0.5-0.6,0.8c-0.1,0.2-0.2,0.4-0.4,0.6c-0.1,0.2-0.3,0.5-0.4,0.6c-0.1,0.4,0,0.9,0,1.3c0,0.3,0,0.7-0.1,1.1
	c0,0.1-0.1,0.3-0.2,0.4c-0.1,0.3,0,0.5-0.1,0.7c-0.1,0.2-0.2,0.4-0.3,0.6c-0.1,0.2-0.2,0.5-0.3,0.6c0,0-0.1,0-0.1,0c0,0,0,0.1,0,0.1
	c0,0-0.1,0-0.2,0.1c-0.1,0.1-0.1,0.2-0.2,0.2c-0.2,0-0.4-0.1-0.5-0.1c-0.3,0-0.7,0.4-1.1,0.6c-0.2,0.1-0.3,0.2-0.5,0.3
	c-0.2,0.1-0.3,0.3-0.4,0.4c-0.1,0.3,0,0.9,0,1.2c0,0.3-0.2,0.7-0.4,1.1c-0.1,0.3-0.2,0.5-0.4,0.8c-0.2,0.4-0.5,0.8-0.7,1.2
	c-0.3,0.4-0.5,0.7-0.8,0.7c-0.2,0-0.8-0.4-1-0.2c-0.2,0.2,0.3,0.5,0.4,0.7c0.1,0.2,0.2,0.8,0.1,1.1c0,0-0.1,0-0.1,0.1
	c-0.2,0.4-0.6,0.5-1.1,0.6c-0.1,0-0.4,0-0.4,0.1c0,0-0.2,0.2-0.3,0.3c-0.1,0.3,0.1,0.5-0.1,0.7c0,0-0.1,0.1-0.2,0.1
	c-0.1,0-0.1-0.1-0.2-0.1c-0.1,0-0.3,0.1-0.4,0.2c0,0.1,0,0.1,0.1,0.2c0.2,0.3,0.4,0.5,0.3,1c0,0.1,0,0.3-0.1,0.4
	c-0.1,0.2-0.3,0.4-0.3,0.7c0,0.4,0.7,0.8,0.7,1.2c0,0.2-0.1,0.4-0.2,0.6c-0.1,0.2-0.2,0.4-0.2,0.6c0,0.1,0.1,0.4,0.1,0.6
	c0.2,0.2,0.6,0.7,0.7,0.8c0.2,0.1,0.8,0.4,1.5,0.8c0,0,0,0.1,0,0.1c-0.1,0-0.5,0-0.6,0c-0.3,0.2-0.6,0-0.9-0.1
	c-0.1-0.1-0.3,0-0.4-0.1c-0.6-0.5-0.3-0.7-0.9-1c-0.3,0-0.8-0.2-0.9-0.3c-0.3-0.3-0.6-0.7-0.9-1.1c-0.1-0.2-0.3-0.4-0.4-0.7
	c0-0.1,0-0.2-0.1-0.3c-0.2-0.6-0.6-0.7-0.4-1.3c0-0.1,0.1-0.2,0.1-0.3c0-0.1,0-0.3-0.1-0.4c0-0.1-0.1-0.2-0.2-0.3
	c-0.1-0.2-0.1-0.5-0.2-0.7c-0.2-0.5-0.7-0.6-0.8-1.1c0-0.2,0-0.5,0-0.7c0-0.4-0.2-0.7-0.3-0.9c0-0.3,0.1-0.6,0.1-1
	c0-0.4,0-0.8,0-1.1c-0.1-0.9-0.3-1.7-0.4-2.5c0-0.6,0-1.2,0-1.7c0-0.3-0.1-0.5-0.1-0.8c0-0.4,0.1-0.6,0.2-0.8
	c0.1-0.7-0.2-1.4-0.4-1.8c-0.1-0.2-0.4-0.5-0.6-0.7c-0.1-0.1-0.1-0.1-0.2-0.2c-0.1,0-0.1-0.1-0.2-0.1c-0.1-0.1-0.2-0.3-0.3-0.3
	c-0.1-0.1-0.2-0.1-0.4-0.2c-0.1-0.1-0.2-0.2-0.3-0.2c-0.2-0.1-0.5-0.2-0.6-0.3c-0.2-0.2-0.5-0.8-0.7-1.2c0-0.1,0-0.1-0.1-0.1
	c0,0,0-0.2-0.1-0.3c0,0-0.1-0.1-0.2-0.1c-0.1-0.1-0.1-0.3-0.2-0.4c-0.1-0.2-0.3-0.4-0.4-0.6c-0.2-0.4-0.4-1-0.7-1.5
	c-0.5-0.8-1-1-0.7-1.8c0.1-0.2,0.2-0.2,0.2-0.4c0-0.2,0-0.3-0.1-0.5c0,0-0.1-0.1-0.1-0.2c-0.1-0.3,0-0.4,0.2-0.7
	c0.1-0.1,0.1-0.3,0.2-0.4c0.1-0.1,0.2-0.2,0.3-0.3c0.2-0.3,0.4-0.6,0.6-1c0.1-0.1,0.1-0.3,0.2-0.4c0.1-0.1,0.2-0.2,0.2-0.3
	c0.1-0.3,0.2-0.8,0.1-1.1C19.1,35.2,19,35,19,34.8c-0.1-0.4-0.2-0.7,0.2-0.8c0.1,0,0.2,0,0.4-0.1c0.2-0.1,0.3-0.4,0.5-0.6
	c0.1-0.1,0.2-0.2,0.3-0.3c0.1-0.1,0.2-0.2,0.3-0.3c0.2-0.2,0.6-0.3,0.7-0.4c0,0,0.1,0,0.1-0.1c0.2,0,0.3-0.1,0.4,0.1
	c0,0,0.1,0.1,0.1,0.2c0,0-0.5,1.1,0.1,0.8c0.2-0.1,0.1-0.1,0.1-0.3c0.1-0.3,0.2-0.6,0.4-0.7c0,0,0.3-0.1,0.3-0.1
	c0.3,0,0.6,0.4,0.8,0.6c0,0,0.1,0,0.2,0c0,0,0,0.1,0.1,0.1c0,0,0.2,0,0.3,0.1c0.2,0,0.6,0.2,0.8,0.2c0.2,0,0.4-0.1,0.6-0.1
	c0.1,0,0.2,0.1,0.3,0.1c0.2,0.1,0.3,0.1,0.5,0.2c0.1,0,0.1,0.1,0.2,0.1c0.1,0.1,0.1,0.1,0.2,0.1c0.1,0.1,0.2,0.2,0.3,0.3
	c0,0,0,0.1,0.1,0.1c0.1,0.1,0.2,0.2,0.4,0.3c0.3,0.3,0.6,0.6,0.9,0.8c0.1,0.1,0.2,0.2,0.3,0.2c0.5,0.2,1.2-0.1,1.5,0.2
	c0.1,0.1,0.3,0.2,0.4,0.3c0.1,0.1,0.1,0.2,0.2,0.3c0.1,0.1,0.2,0.2,0.2,0.2c0.1,0.1,0,0.2,0.1,0.4c0,0.1,0.1,0.2,0.2,0.3
	c0.1,0.3,0.2,0.5,0.2,0.6c0,0.2,0,0.2-0.1,0.4c-0.1,0.2-0.2,0.4-0.1,0.4c0.1,0.1,0.4,0,0.4,0.1c0.2,0,0.4,0,0.5,0.2
	c0.1,0.1,0,0.3,0.2,0.4c0.3,0.1,0.6-0.3,1.1-0.2c0.2,0,0.3,0.1,0.4,0.2c0.2,0.2,0.2,0.7,0.5,0.8c0.1,0,0.4-0.1,0.6-0.2
	c0.6-0.1,1.4,0.1,1.8,0.4c0.3,0.2,0.6,0.7,0.9,0.8c0.4,0.2,0.5,0.1,0.8,0.3C38.9,41.8,39.2,42.2,39,42.9z"/>
</svg>
