<svg xmlns="http://www.w3.org/2000/svg" width="54.938" height="54.703" viewBox="0 0 109.875 109.406">
  <defs>
    <style>
      .cls-1 {
        fill: #ffc300;
      }

      .cls-2 {
        fill: #fff;
        fill-rule: evenodd;
      }
    </style>
  </defs>
  <circle id="Ellipse_4_copy" data-name="Ellipse 4 copy" class="cls-1" cx="54.938" cy="54.703" r="54.938"/>
  <path id="_" data-name="?" class="cls-2" d="M769.821,253.848a5.131,5.131,0,0,0,3.727,1.547,5.291,5.291,0,0,0,5.25-5.268,7.506,7.506,0,0,1,2.406-6.021,9.667,9.667,0,0,1,6.524-2.07,11.614,11.614,0,0,1,7.13,1.924,6.419,6.419,0,0,1,2.549,5.444,7.39,7.39,0,0,1-1.04,3.825,11.455,11.455,0,0,1-2.695,3.1,41.671,41.671,0,0,1-3.619,2.6q-1.965,1.268-3.929,2.6a30.343,30.343,0,0,0-3.581,2.84,12.021,12.021,0,0,0-2.635,3.59,10.2,10.2,0,0,0-1.016,4.529,10.939,10.939,0,0,0,3.562,8.165,5.1,5.1,0,0,0,3.75,1.549,5.242,5.242,0,0,0,3.586-1.454,4.808,4.808,0,0,0,1.617-3.75,4.747,4.747,0,0,0-.959-2.859,4.165,4.165,0,0,1-1.01-2.3,3.2,3.2,0,0,1,1-2.226,12.793,12.793,0,0,1,2.613-2.039q1.61-.986,3.582-2.086a33.747,33.747,0,0,0,3.921-2.578,26.214,26.214,0,0,0,3.569-3.258,13.813,13.813,0,0,0,2.63-4.43,16.122,16.122,0,0,0,1.01-5.789q0-8.016-5.268-12.4t-14.771-4.383q-9.132,0-14.3,4.64t-5.172,12.844A5.013,5.013,0,0,0,769.821,253.848Zm16.013,45.516q6.135,0,6.136-6.235,0-6.422-6.136-6.421-6.24,0-6.239,6.421,0,6.236,6.239,6.235h0Z" transform="translate(-733 -207)"/>
</svg>
